<?xml version="1.0" encoding="UTF-8"?>
<svg id="Layer_2" data-name="Layer 2" xmlns="http://www.w3.org/2000/svg" viewBox="0 0 633.79 70.44">
  <defs>
    <style>
      .cls-1 {
        fill: #e57ea6;
      }
    </style>
  </defs>
  <g id="Layer_1-2" data-name="Layer 1">
    <g>
      <path class="cls-1" d="M3.58,67.89c-2.39-1-3.58-2.81-3.58-5.42,0-2.92,2.54-10.77,7.62-23.54,4-10.69,6.35-16.73,7.04-18.12,1.31-2.31,3.19-3.46,5.65-3.46.77,0,2.81-.02,6.12-.06,3.31-.04,6.04-.06,8.19-.06h5.08c1,.08,1.85.52,2.54,1.33s1.04,1.75,1.04,2.83c-.15,2-1.31,3.27-3.46,3.81-1.69.39-6.39.58-14.08.58-2.85-.08-4.62,1.19-5.31,3.81l-2.08,5.54c-.69,2.08.04,3.19,2.19,3.35,4.77.54,7.62,1.19,8.54,1.96.92.77,1.15,2.04.69,3.81-.39,1.77-1.5,2.73-3.35,2.88-1.15.16-2.54.16-4.15,0-1.62-.15-3.31-.17-5.08-.06-1.77.12-2.92.4-3.46.87-1,1-2.15,4.08-3.46,9.23-.39,1.31-.08,2.15.92,2.54,1,.39,2.42.58,4.27.58h8.77c3.69,0,5.54,1.31,5.54,3.92-.15,2.77-1.96,4.27-5.42,4.5-3.16.15-7.15.15-12,0s-7.77-.42-8.77-.81Z"/>
      <path class="cls-1" d="M46.84,63.62c-2.39.31-4.15-.15-5.31-1.38-1.15-1.23-1.54-3-1.15-5.31.23-2.15,2.37-8.6,6.4-19.33,4.04-10.73,6.6-16.6,7.67-17.6,1.23-1.23,2.58-1.58,4.04-1.04,2.77.77,3.35,3.5,1.73,8.19-5.23,13.23-8.15,20.85-8.77,22.85-.54,1.69-.56,2.81-.06,3.35.5.54,1.63.73,3.4.58,3.46-.77,6.46-.96,9-.58,2.54.39,3.81,1.73,3.81,4.04,0,2.08-1.19,3.39-3.58,3.92-1,.16-3.56.5-7.67,1.04-4.12.54-7.29.96-9.52,1.27Z"/>
      <path class="cls-1" d="M104.19,64.66c-.85-.23-1.5-.58-1.96-1.04s-.79-1.15-.98-2.08c-.19-.92-.31-1.65-.35-2.19-.04-.54-.06-1.5-.06-2.88l.12-31.5c0-2.38.35-4.08,1.04-5.08.69-1,1.81-1.46,3.35-1.38,1,0,1.86.31,2.6.92.73.62,1.13,1.38,1.21,2.31.08,1.31.02,4.5-.17,9.58-.19,5.08-.29,8.5-.29,10.27,0,3.16.23,4.81.69,4.96.85.31,1.81-.58,2.88-2.65,3.77-7.54,7.08-13.42,9.92-17.65,1-1.69,2.38-2.54,4.15-2.54,1.08,0,2,.4,2.77,1.21.77.81,1.11,1.87,1.04,3.17-.08.54-.35,1.33-.81,2.37-.46,1.04-1.25,2.5-2.37,4.38-1.12,1.89-2.06,3.44-2.83,4.67-.77,1.23-2.08,3.31-3.92,6.23-1.85,2.92-3.12,4.96-3.81,6.12-1.69,3.08-2.88,5.15-3.58,6.23-.69,1.08-1.62,2.39-2.77,3.92-1.15,1.54-2.17,2.46-3.06,2.77-.89.31-1.83.27-2.83-.12Z"/>
      <path class="cls-1" d="M131.88,63.5c-1.46-.54-2.27-1.73-2.42-3.58,0-.85.33-2.21.98-4.1.65-1.88,1.5-4.17,2.54-6.87,1.04-2.69,1.79-4.69,2.25-6,1.15-2.92,2.17-5.73,3.06-8.42.88-2.69,1.62-5.02,2.19-6.98.58-1.96.94-3.21,1.1-3.75,1.15-3.31,2.85-4.65,5.08-4.04,2.92.77,3.73,3.73,2.42,8.88-2.31,8-5.96,18.39-10.96,31.15-1.62,3.46-3.69,4.69-6.23,3.69Z"/>
      <path class="cls-1" d="M173.99,67.66c-.85-.15-1.52-.4-2.02-.75-.5-.35-.83-.83-.98-1.44-.16-.61-.23-1.19-.23-1.73s.04-1.31.12-2.31c.08-1,.12-1.77.12-2.31,0-1-.35-1.63-1.04-1.9-.69-.27-1.92-.4-3.69-.4-5.23,0-8.31,2.31-9.23,6.92-.23,1-.83,1.83-1.79,2.48-.96.65-1.87.98-2.71.98-1.15,0-2.08-.42-2.77-1.27-.69-.85-1.04-1.81-1.04-2.88,0-2.23,2.42-8.11,7.27-17.65,8.46-17.38,15.15-26.08,20.08-26.08,4.46,0,6.69,4.46,6.69,13.38-.16,2.85-.75,8.48-1.79,16.9-1.04,8.42-1.79,13.37-2.25,14.83-.69,2.54-2.27,3.62-4.73,3.23ZM172.96,44.12c.46-3.08.69-5.06.69-5.94s-.31-1.44-.92-1.67c-.85-.46-1.62-.19-2.31.81-2.92,4.77-4.38,7.62-4.38,8.54,0,1.08.81,1.62,2.42,1.62,1.08,0,2.08-.31,3-.92.92-.61,1.42-1.42,1.5-2.42Z"/>
      <path class="cls-1" d="M198.23,69.39c-3-.08-5.46-1.37-7.38-3.87-1.92-2.5-3.73-5.83-5.42-9.98-.31-.77-.31-1.62,0-2.54.31-.92.88-1.65,1.73-2.19,1.62-1.08,3.27-1,4.96.23.46.31.98.96,1.56,1.96.58,1,1.17,2.13,1.79,3.4.61,1.27,1.08,2.13,1.38,2.6.54.77,1.21,1.17,2.02,1.21.81.04,1.52-.33,2.13-1.1,1.31-1.46,2.85-5.54,4.62-12.23,1.46-6,3.13-12.6,5.02-19.79,1.88-7.19,2.98-11.06,3.29-11.6,1-1.92,2.54-2.65,4.62-2.19,2,.39,3.08,1.73,3.23,4.04,0,.77-3,12.69-9,35.77-2.62,10.85-7.46,16.27-14.54,16.27Z"/>
      <path class="cls-1" d="M224.65,67.89c-2.39-1-3.58-2.81-3.58-5.42,0-2.92,2.54-10.77,7.62-23.54,4-10.69,6.35-16.73,7.04-18.12,1.31-2.31,3.19-3.46,5.65-3.46.77,0,2.81-.02,6.12-.06,3.31-.04,6.04-.06,8.19-.06h5.08c1,.08,1.85.52,2.54,1.33s1.04,1.75,1.04,2.83c-.15,2-1.31,3.27-3.46,3.81-1.69.39-6.39.58-14.08.58-2.85-.08-4.62,1.19-5.31,3.81l-2.08,5.54c-.69,2.08.04,3.19,2.19,3.35,4.77.54,7.62,1.19,8.54,1.96.92.77,1.15,2.04.69,3.81-.39,1.77-1.5,2.73-3.35,2.88-1.15.16-2.54.16-4.15,0-1.62-.15-3.31-.17-5.08-.06-1.77.12-2.92.4-3.46.87-1,1-2.15,4.08-3.46,9.23-.39,1.31-.08,2.15.92,2.54,1,.39,2.42.58,4.27.58h8.77c3.69,0,5.54,1.31,5.54,3.92-.15,2.77-1.96,4.27-5.42,4.5-3.16.15-7.15.15-12,0s-7.77-.42-8.77-.81Z"/>
      <path class="cls-1" d="M298.61,67.43c-3,0-5.27-1.06-6.81-3.17-1.54-2.11-2.31-4.75-2.31-7.9.08-5.08,1.33-10.54,3.75-16.38,2.42-5.84,5.6-10.83,9.52-14.94,3.92-4.11,7.85-6.17,11.77-6.17,2.38,0,4.33.89,5.83,2.65,1.5,1.77,2.13,3.85,1.9,6.23-.23,2.15-1.15,3.54-2.77,4.15-1.85.62-3.35.15-4.5-1.38-.15-.15-.42-.44-.81-.87-.39-.42-.63-.67-.75-.75-.12-.08-.33-.19-.63-.35-.31-.15-.6-.15-.87,0-.27.15-.6.39-.98.69-2.62,1.92-5.21,5.31-7.79,10.15-2.58,4.85-4.21,9.27-4.9,13.27-.39,2.15-.29,3.81.29,4.96.58,1.15,1.6,1.23,3.06.23.38-.23.92-.61,1.62-1.15.69-.54,1.17-.88,1.44-1.04.27-.15.63-.31,1.1-.46.46-.15.92-.23,1.38-.23,1.08,0,2,.4,2.77,1.21.77.81,1.15,1.79,1.15,2.94,0,2.08-1.38,3.98-4.15,5.71-2.77,1.73-5.54,2.6-8.31,2.6Z"/>
      <path class="cls-1" d="M331.26,65.23c-3,0-5.46-1.1-7.38-3.29-1.92-2.19-2.88-4.9-2.88-8.13,0-4.85,1.15-9.96,3.46-15.35,2.31-5.38,5.38-9.94,9.23-13.67,3.85-3.73,7.73-5.6,11.65-5.6,1.77,0,3.23.79,4.38,2.37,1.15,1.58,1.9,3.35,2.25,5.31s.52,4.1.52,6.4c.08,7.62-2.02,14.85-6.29,21.69-4.27,6.85-9.25,10.27-14.94,10.27ZM331.95,56.35c2.77.23,5.5-2.52,8.19-8.25,2.69-5.73,4.04-10.67,4.04-14.83,0-2.23-.65-3.35-1.96-3.35-2.46,0-5.21,2.83-8.25,8.48-3.04,5.65-4.56,10.29-4.56,13.9,0,2.69.85,4.04,2.54,4.04Z"/>
      <path class="cls-1" d="M383.3,68.12c-1.77.08-3.1-.59-3.98-2.02-.89-1.42-1.71-3.67-2.48-6.75-2.23-8.23-3.77-14.11-4.62-17.65-.69-2.77-1.54-4.15-2.54-4.15-1.38,0-2.88,3.14-4.5,9.4-1.62,6.27-2.5,11.02-2.65,14.25-.31,3.15-1.66,4.81-4.04,4.96-1.85.08-3.19-.73-4.04-2.42-1.15-2.31-.16-8.96,3-19.96.23-.77.61-2.15,1.15-4.15.54-2,.98-3.58,1.33-4.73.35-1.15.81-2.63,1.38-4.44.58-1.81,1.11-3.25,1.62-4.33.5-1.08,1.08-2.17,1.73-3.29.65-1.11,1.33-1.94,2.02-2.48.69-.54,1.38-.81,2.08-.81,1.77.08,3.15.69,4.15,1.85,1,1.15,2.15,3.08,3.46,5.77,1.15,2.77,2.88,8.04,5.19,15.81.46,1.62,1.31,1.85,2.54.69.77-.69,1.35-1.77,1.73-3.23,1.92-5.77,5.11-13.54,9.58-23.31,1.31-1.92,2.88-2.5,4.73-1.73,3.23.92,3.81,3.73,1.73,8.42-5.08,10.54-9.85,24.19-14.31,40.96-.92,2.15-2.35,3.27-4.27,3.35Z"/>
      <path class="cls-1" d="M415.72,66.62c-.85-.38-1.48-1.06-1.9-2.02-.42-.96-.48-1.94-.17-2.94.46-1.62,4.31-11.69,11.54-30.23.23-1,.02-1.75-.63-2.25-.65-.5-1.67-.75-3.06-.75-5.39.16-8.27.23-8.65.23-2.92.15-4.98.02-6.17-.4-1.19-.42-1.9-1.56-2.13-3.4-.15-1.46.4-2.61,1.67-3.46,1.27-.85,3.06-1.27,5.37-1.27h29.88c9,0,14.04.19,15.12.58.08.08.19.15.35.23,1.69,1,2.35,2.42,1.96,4.27-.23,1.23-.85,2.1-1.85,2.6-1,.5-2.62.75-4.85.75-5.46,0-9.58-.04-12.35-.12-2.77-.08-4.65,1.19-5.65,3.81-.92,2.69-2.46,6.65-4.62,11.88-5.46,13.62-8.31,20.54-8.54,20.77-1.31,1.92-3.08,2.5-5.31,1.73Z"/>
      <path class="cls-1" d="M454.95,63.5c-1.46-.54-2.27-1.73-2.42-3.58,0-.85.33-2.21.98-4.1.65-1.88,1.5-4.17,2.54-6.87,1.04-2.69,1.79-4.69,2.25-6,1.15-2.92,2.17-5.73,3.06-8.42.88-2.69,1.62-5.02,2.19-6.98.58-1.96.94-3.21,1.1-3.75,1.15-3.31,2.85-4.65,5.08-4.04,2.92.77,3.73,3.73,2.42,8.88-2.31,8-5.96,18.39-10.96,31.15-1.62,3.46-3.69,4.69-6.23,3.69Z"/>
      <path class="cls-1" d="M501.33,68.12c-1.77.08-3.1-.59-3.98-2.02-.89-1.42-1.71-3.67-2.48-6.75-2.23-8.23-3.77-14.11-4.62-17.65-.69-2.77-1.54-4.15-2.54-4.15-1.38,0-2.88,3.14-4.5,9.4-1.62,6.27-2.5,11.02-2.65,14.25-.31,3.15-1.66,4.81-4.04,4.96-1.85.08-3.19-.73-4.04-2.42-1.15-2.31-.16-8.96,3-19.96.23-.77.61-2.15,1.15-4.15.54-2,.98-3.58,1.33-4.73.35-1.15.81-2.63,1.38-4.44.58-1.81,1.11-3.25,1.62-4.33.5-1.08,1.08-2.17,1.73-3.29.65-1.11,1.33-1.94,2.02-2.48.69-.54,1.38-.81,2.08-.81,1.77.08,3.15.69,4.15,1.85,1,1.15,2.15,3.08,3.46,5.77,1.15,2.77,2.88,8.04,5.19,15.81.46,1.62,1.31,1.85,2.54.69.77-.69,1.35-1.77,1.73-3.23,1.92-5.77,5.11-13.54,9.58-23.31,1.31-1.92,2.88-2.5,4.73-1.73,3.23.92,3.81,3.73,1.73,8.42-5.08,10.54-9.85,24.19-14.31,40.96-.92,2.15-2.35,3.27-4.27,3.35Z"/>
      <path class="cls-1" d="M534.1,63.62c-2.31,1.15-4.56,1.37-6.75.63-2.19-.73-3.91-2.21-5.13-4.44-1.08-2.38-1.69-5.38-1.85-9-.15-3.61-.02-7.11.4-10.5.42-3.38,1.06-6.61,1.9-9.69.38-1.77,1.08-3.08,2.08-3.92,1-.85,2.11-1.08,3.35-.69,1.69.54,2.67,1.58,2.94,3.12.27,1.54.1,3.27-.52,5.19-.69,2.54-1.21,5.31-1.56,8.31s-.39,5.71-.12,8.13c.27,2.42.94,3.63,2.02,3.63,2.54,0,5.69-6.12,9.46-18.35,1-3,2.08-6.42,3.23-10.27,1-3.46,2.92-4.81,5.77-4.04,1.23.39,2.06,1.15,2.48,2.31.42,1.15.36,2.54-.17,4.15-3.16,10.85-5.96,18.96-8.42,24.35-1.15,2.54-2.56,4.83-4.21,6.87-1.65,2.04-3.29,3.44-4.9,4.21ZM535.26,14.12c-.77,0-1.46-.31-2.08-.92-1.15-1.15-1.35-2.35-.58-3.58.54-.85,1.19-1.54,1.96-2.08l10.27-6.69c.61-.38,1.34-.65,2.19-.81,1-.15,1.85.12,2.54.81.77.77,1.11,1.62,1.04,2.54-.08.92-.69,1.77-1.85,2.54l-6.23,3.92c-.31.23-.81.58-1.5,1.04-.69.46-1.19.81-1.5,1.04l-2.88,1.85c-.46.23-.92.35-1.38.35Z"/>
      <path class="cls-1" d="M577.49,67.66c-.85-.15-1.52-.4-2.02-.75-.5-.35-.83-.83-.98-1.44-.16-.61-.23-1.19-.23-1.73s.04-1.31.12-2.31c.08-1,.12-1.77.12-2.31,0-1-.35-1.63-1.04-1.9-.69-.27-1.92-.4-3.69-.4-5.23,0-8.31,2.31-9.23,6.92-.23,1-.83,1.83-1.79,2.48-.96.65-1.87.98-2.71.98-1.15,0-2.08-.42-2.77-1.27-.69-.85-1.04-1.81-1.04-2.88,0-2.23,2.42-8.11,7.27-17.65,8.46-17.38,15.15-26.08,20.08-26.08,4.46,0,6.69,4.46,6.69,13.38-.16,2.85-.75,8.48-1.79,16.9-1.04,8.42-1.79,13.37-2.25,14.83-.69,2.54-2.27,3.62-4.73,3.23ZM576.45,44.12c.46-3.08.69-5.06.69-5.94s-.31-1.44-.92-1.67c-.85-.46-1.62-.19-2.31.81-2.92,4.77-4.38,7.62-4.38,8.54,0,1.08.81,1.62,2.42,1.62,1.08,0,2.08-.31,3-.92.92-.61,1.42-1.42,1.5-2.42Z"/>
      <path class="cls-1" d="M592.72,70.43c-1.08-.08-2.02-.52-2.83-1.33-.81-.81-1.17-1.71-1.1-2.71.08-1.15.54-2.13,1.38-2.94.85-.81,1.81-1.17,2.88-1.1,1,.08,1.88.5,2.65,1.27.77.77,1.15,1.69,1.15,2.77,0,1.15-.4,2.13-1.21,2.94-.81.81-1.79,1.17-2.94,1.1Z"/>
      <path class="cls-1" d="M611.18,70.43c-1.08-.08-2.02-.52-2.83-1.33-.81-.81-1.17-1.71-1.1-2.71.08-1.15.54-2.13,1.38-2.94.85-.81,1.81-1.17,2.88-1.1,1,.08,1.88.5,2.65,1.27.77.77,1.15,1.69,1.15,2.77,0,1.15-.4,2.13-1.21,2.94-.81.81-1.79,1.17-2.94,1.1Z"/>
      <path class="cls-1" d="M629.64,70.43c-1.08-.08-2.02-.52-2.83-1.33-.81-.81-1.17-1.71-1.1-2.71.08-1.15.54-2.13,1.38-2.94.85-.81,1.81-1.17,2.88-1.1,1,.08,1.88.5,2.65,1.27.77.77,1.15,1.69,1.15,2.77,0,1.15-.4,2.13-1.21,2.94-.81.81-1.79,1.17-2.94,1.1Z"/>
    </g>
  </g>
</svg>