<?xml version="1.0" encoding="UTF-8"?>
<svg id="Layer_2" data-name="Layer 2" xmlns="http://www.w3.org/2000/svg" viewBox="0 0 900.37 54.23">
  <defs>
    <style>
      .cls-1 {
        fill: #e57ea6;
      }
    </style>
  </defs>
  <g id="Layer_1-2" data-name="Layer 1">
    <g>
      <path class="cls-1" d="M14.21,17.31c2.15,1,2.92,2.62,2.31,4.85-.16.77-1.35,4.77-3.58,12-2.23,7.23-3.69,12.46-4.38,15.69-.85,2.85-2.42,4.08-4.73,3.69-1.23-.23-2.25-.83-3.06-1.79-.81-.96-.98-2.17-.52-3.63.85-2.61,1.86-6.21,3.06-10.79,1.19-4.58,2.27-8.5,3.23-11.77.96-3.27,1.79-5.44,2.48-6.52,1.15-1.92,2.88-2.5,5.19-1.73ZM13.41,1.21c.85-.81,1.85-1.21,3-1.21s2.13.4,2.94,1.21,1.17,1.79,1.1,2.94c-.08,1.08-.54,2.02-1.38,2.83-.85.81-1.85,1.17-3,1.1-1.08-.08-2-.5-2.77-1.27-.77-.77-1.15-1.65-1.15-2.65,0-1.15.42-2.13,1.27-2.94Z"/>
      <path class="cls-1" d="M34.17,52.04c-.85-.38-1.48-1.06-1.9-2.02-.42-.96-.48-1.94-.17-2.94.46-1.62,4.31-11.69,11.54-30.23.23-1,.02-1.75-.63-2.25-.65-.5-1.67-.75-3.06-.75-5.39.16-8.27.23-8.65.23-2.92.15-4.98.02-6.17-.4-1.19-.42-1.9-1.56-2.13-3.4-.15-1.46.4-2.61,1.67-3.46,1.27-.85,3.06-1.27,5.37-1.27h29.88c9,0,14.04.19,15.12.58.08.08.19.15.35.23,1.69,1,2.35,2.42,1.96,4.27-.23,1.23-.85,2.1-1.85,2.6-1,.5-2.62.75-4.85.75-5.46,0-9.58-.04-12.35-.12-2.77-.08-4.65,1.19-5.65,3.81-.92,2.69-2.46,6.65-4.62,11.88-5.46,13.62-8.31,20.54-8.54,20.77-1.31,1.92-3.08,2.5-5.31,1.73Z"/>
      <path class="cls-1" d="M90.6,49.04c-2.31,1.15-4.56,1.37-6.75.63-2.19-.73-3.91-2.21-5.13-4.44-1.08-2.38-1.69-5.38-1.85-9-.15-3.61-.02-7.11.4-10.5.42-3.38,1.06-6.61,1.9-9.69.38-1.77,1.08-3.08,2.08-3.92,1-.85,2.11-1.08,3.35-.69,1.69.54,2.67,1.58,2.94,3.12.27,1.54.1,3.27-.52,5.19-.69,2.54-1.21,5.31-1.56,8.31s-.39,5.71-.12,8.13c.27,2.42.94,3.63,2.02,3.63,2.54,0,5.69-6.12,9.46-18.35,1-3,2.08-6.42,3.23-10.27,1-3.46,2.92-4.81,5.77-4.04,1.23.39,2.06,1.15,2.48,2.31.42,1.15.36,2.54-.17,4.15-3.16,10.85-5.96,18.96-8.42,24.35-1.15,2.54-2.56,4.83-4.21,6.87-1.65,2.04-3.29,3.44-4.9,4.21Z"/>
      <path class="cls-1" d="M140.32,50.19c-1.54-.23-2.5-1.11-2.88-2.65-.46-2.15-.08-5.69,1.15-10.62l6.92-23.65c1-4.69,3.81-7.27,8.42-7.73,5.46-.69,10.34.31,14.65,3,3.23,2,5.13,4.54,5.71,7.62.58,3.08-.33,6.12-2.71,9.12-2.08,2.54-5.23,4.71-9.46,6.52-4.23,1.81-7.92,2.71-11.08,2.71-1.38.08-2.31.4-2.77.98-.46.58-.96,1.9-1.5,3.98-.54,2.77-.96,5.04-1.27,6.81-.15,1.54-.73,2.64-1.73,3.29-1,.65-2.15.87-3.46.63ZM153.94,25.38c4.31-.69,7.81-2.38,10.5-5.08.61-.54.9-1.27.87-2.19-.04-.92-.37-1.58-.98-1.96-2.08-1.31-4.25-2-6.52-2.08-2.27-.08-3.6.58-3.98,1.96-.92,3.08-1.58,5.39-1.96,6.92-.15.69-.02,1.29.4,1.79.42.5.98.71,1.67.63Z"/>
      <path class="cls-1" d="M176.79,53.31c-2.39-1-3.58-2.81-3.58-5.42,0-2.92,2.54-10.77,7.62-23.54,4-10.69,6.35-16.73,7.04-18.12,1.31-2.31,3.19-3.46,5.65-3.46.77,0,2.81-.02,6.12-.06,3.31-.04,6.04-.06,8.19-.06h5.08c1,.08,1.85.52,2.54,1.33s1.04,1.75,1.04,2.83c-.15,2-1.31,3.27-3.46,3.81-1.69.39-6.39.58-14.08.58-2.85-.08-4.62,1.19-5.31,3.81l-2.08,5.54c-.69,2.08.04,3.19,2.19,3.35,4.77.54,7.62,1.19,8.54,1.96.92.77,1.15,2.04.69,3.81-.39,1.77-1.5,2.73-3.35,2.88-1.15.16-2.54.16-4.15,0-1.62-.15-3.31-.17-5.08-.06-1.77.12-2.92.4-3.46.87-1,1-2.15,4.08-3.46,9.23-.39,1.31-.08,2.15.92,2.54,1,.39,2.42.58,4.27.58h8.77c3.69,0,5.54,1.31,5.54,3.92-.15,2.77-1.96,4.27-5.42,4.5-3.16.15-7.15.15-12,0s-7.77-.42-8.77-.81Z"/>
      <path class="cls-1" d="M216.94,51.92c-2.85-.61-3.96-2.35-3.35-5.19.38-1.54,2.6-7.52,6.63-17.94,4.04-10.42,6.29-16.67,6.75-18.75.61-2.92,2.31-4.19,5.08-3.81,6.15.85,10.81,2.04,13.96,3.58,7.62,3.62,10.34,9.5,8.19,17.65-1.23,4.85-3.29,9.17-6.17,12.98-2.88,3.81-6.48,6.63-10.79,8.48-8.08,3.08-14.85,4.08-20.31,3ZM227.32,42.92c8.08-.77,14-5.92,17.77-15.46,2.46-6.23-.15-10.08-7.85-11.54-1.62-.38-2.73.15-3.35,1.62l-8.88,22.85c-.31.77-.21,1.42.29,1.96.5.54,1.17.73,2.02.58Z"/>
      <path class="cls-1" d="M258.94,48.92c-1.46-.54-2.27-1.73-2.42-3.58,0-.85.33-2.21.98-4.1.65-1.88,1.5-4.17,2.54-6.87,1.04-2.69,1.79-4.69,2.25-6,1.15-2.92,2.17-5.73,3.06-8.42.88-2.69,1.62-5.02,2.19-6.98.58-1.96.94-3.21,1.1-3.75,1.15-3.31,2.85-4.65,5.08-4.04,2.92.77,3.73,3.73,2.42,8.88-2.31,8-5.96,18.39-10.96,31.15-1.62,3.46-3.69,4.69-6.23,3.69Z"/>
      <path class="cls-1" d="M279.59,51.92c-2.85-.61-3.96-2.35-3.35-5.19.38-1.54,2.6-7.52,6.63-17.94,4.04-10.42,6.29-16.67,6.75-18.75.61-2.92,2.31-4.19,5.08-3.81,6.15.85,10.81,2.04,13.96,3.58,7.62,3.62,10.34,9.5,8.19,17.65-1.23,4.85-3.29,9.17-6.17,12.98-2.88,3.81-6.48,6.63-10.79,8.48-8.08,3.08-14.85,4.08-20.31,3ZM289.97,42.92c8.08-.77,14-5.92,17.77-15.46,2.46-6.23-.15-10.08-7.85-11.54-1.62-.38-2.73.15-3.35,1.62l-8.88,22.85c-.31.77-.21,1.42.29,1.96.5.54,1.17.73,2.02.58Z"/>
      <path class="cls-1" d="M331.74,50.65c-3,0-5.46-1.1-7.38-3.29-1.92-2.19-2.88-4.9-2.88-8.13,0-4.85,1.15-9.96,3.46-15.35,2.31-5.38,5.38-9.94,9.23-13.67,3.85-3.73,7.73-5.6,11.65-5.6,1.77,0,3.23.79,4.38,2.37,1.15,1.58,1.9,3.35,2.25,5.31s.52,4.1.52,6.4c.08,7.62-2.02,14.85-6.29,21.69-4.27,6.85-9.25,10.27-14.94,10.27ZM332.43,41.77c2.77.23,5.5-2.52,8.19-8.25,2.69-5.73,4.04-10.67,4.04-14.83,0-2.23-.65-3.35-1.96-3.35-2.46,0-5.21,2.83-8.25,8.48-3.04,5.65-4.56,10.29-4.56,13.9,0,2.69.85,4.04,2.54,4.04Z"/>
      <path class="cls-1" d="M382.74,47.77c0-.46.06-.96.17-1.5.12-.54.31-1.31.58-2.31.27-1,.58-2.08.92-3.23.35-1.15.83-2.81,1.44-4.96.61-2.15,1.23-4.38,1.85-6.69,2.08-7.46,3.46-12.88,4.15-16.27.85-3.15,1.77-5.27,2.77-6.35,1-1.08,2.84-1.77,5.54-2.08,6.61-.77,10.81-.77,12.58,0,1.62.77,2.46,1.92,2.54,3.46.15,1.62-.58,2.88-2.19,3.81-1.08.62-4.19.92-9.35.92-2,.15-3.23,1.15-3.69,3l-1.85,8.19c-.23.92-.08,1.58.46,1.96.54.39,1.38.65,2.54.81,3.92,0,6,1.08,6.23,3.23.23,2.08-.62,3.58-2.54,4.5-1.31.46-3.69.96-7.15,1.5-2.39.46-3.85,1.77-4.38,3.92-.15,1.08-.6,2.9-1.33,5.48-.73,2.58-1.25,4.14-1.56,4.67-.85,1.54-2.08,2.31-3.69,2.31-2.69,0-4.04-1.46-4.04-4.38Z"/>
      <path class="cls-1" d="M427.85,49.04c-2.31,1.15-4.56,1.37-6.75.63-2.19-.73-3.91-2.21-5.13-4.44-1.08-2.38-1.69-5.38-1.85-9-.15-3.61-.02-7.11.4-10.5.42-3.38,1.06-6.61,1.9-9.69.38-1.77,1.08-3.08,2.08-3.92,1-.85,2.11-1.08,3.35-.69,1.69.54,2.67,1.58,2.94,3.12.27,1.54.1,3.27-.52,5.19-.69,2.54-1.21,5.31-1.56,8.31s-.39,5.71-.12,8.13c.27,2.42.94,3.63,2.02,3.63,2.54,0,5.69-6.12,9.46-18.35,1-3,2.08-6.42,3.23-10.27,1-3.46,2.92-4.81,5.77-4.04,1.23.39,2.06,1.15,2.48,2.31.42,1.15.36,2.54-.17,4.15-3.16,10.85-5.96,18.96-8.42,24.35-1.15,2.54-2.56,4.83-4.21,6.87-1.65,2.04-3.29,3.44-4.9,4.21Z"/>
      <path class="cls-1" d="M449.89,53.31c-2.39-1-3.58-2.81-3.58-5.42,0-2.92,2.54-10.77,7.62-23.54,4-10.69,6.35-16.73,7.04-18.12,1.31-2.31,3.19-3.46,5.65-3.46.77,0,2.81-.02,6.12-.06,3.31-.04,6.04-.06,8.19-.06h5.08c1,.08,1.85.52,2.54,1.33s1.04,1.75,1.04,2.83c-.15,2-1.31,3.27-3.46,3.81-1.69.39-6.39.58-14.08.58-2.85-.08-4.62,1.19-5.31,3.81l-2.08,5.54c-.69,2.08.04,3.19,2.19,3.35,4.77.54,7.62,1.19,8.54,1.96.92.77,1.15,2.04.69,3.81-.39,1.77-1.5,2.73-3.35,2.88-1.15.16-2.54.16-4.15,0-1.62-.15-3.31-.17-5.08-.06-1.77.12-2.92.4-3.46.87-1,1-2.15,4.08-3.46,9.23-.39,1.31-.08,2.15.92,2.54,1,.39,2.42.58,4.27.58h8.77c3.69,0,5.54,1.31,5.54,3.92-.15,2.77-1.96,4.27-5.42,4.5-3.16.15-7.15.15-12,0s-7.77-.42-8.77-.81Z"/>
      <path class="cls-1" d="M529.39,52.04c-.85-.38-1.48-1.06-1.9-2.02-.42-.96-.48-1.94-.17-2.94.46-1.62,4.31-11.69,11.54-30.23.23-1,.02-1.75-.63-2.25-.65-.5-1.67-.75-3.06-.75-5.39.16-8.27.23-8.65.23-2.92.15-4.98.02-6.17-.4-1.19-.42-1.9-1.56-2.13-3.4-.15-1.46.4-2.61,1.67-3.46,1.27-.85,3.06-1.27,5.37-1.27h29.88c9,0,14.04.19,15.12.58.08.08.19.15.35.23,1.69,1,2.35,2.42,1.96,4.27-.23,1.23-.85,2.1-1.85,2.6-1,.5-2.62.75-4.85.75-5.46,0-9.58-.04-12.35-.12-2.77-.08-4.65,1.19-5.65,3.81-.92,2.69-2.46,6.65-4.62,11.88-5.46,13.62-8.31,20.54-8.54,20.77-1.31,1.92-3.08,2.5-5.31,1.73Z"/>
      <path class="cls-1" d="M573.24,50.31c-2.15-.31-3.33-1.85-3.52-4.62-.19-2.77.17-5.58,1.1-8.42,0,.08.13-.6.4-2.02.27-1.42.63-3.25,1.1-5.48.46-2.23.94-4.56,1.44-6.98.5-2.42.96-4.71,1.38-6.87.42-2.15.75-3.73.98-4.73.54-2.31,1.44-3.98,2.71-5.02,1.27-1.04,3.1-1.52,5.48-1.44,6.61.39,11.73,3.23,15.35,8.54,3.61,4.92,3.12,9.5-1.5,13.73l-1.15,1.04c-1.23.92-2,1.66-2.31,2.19-.31.54-.25,1.06.17,1.56.42.5,1.29,1.14,2.6,1.9.31.16,1.15.63,2.54,1.44s2.38,1.4,3,1.79c5,2.85,8.19,4.92,9.58,6.23,1.38,1.31,1.5,2.88.35,4.73-1.54,2.23-4.19,2.27-7.96.12l-18.92-11.08c-2.54-1.54-4.19-2.15-4.96-1.85-.69.31-1.38,2-2.08,5.08-.16.77-.31,1.6-.46,2.48-.16.89-.27,1.58-.35,2.08-.08.5-.19,1.06-.35,1.67-.16.62-.27,1.08-.35,1.38-.08.31-.19.65-.35,1.04-.15.39-.31.65-.46.81-.16.15-.35.33-.58.52-.23.19-.48.29-.75.29h-.92c-.35,0-.75-.04-1.21-.12ZM585.35,23.77c1.23,0,2.77-.52,4.62-1.56,1.85-1.04,2.77-2.1,2.77-3.17,0-.92-.75-2.02-2.25-3.29-1.5-1.27-2.83-1.9-3.98-1.9-1.23.08-2.23,1.58-3,4.5-.92,3.62-.31,5.42,1.85,5.42Z"/>
      <path class="cls-1" d="M637.97,53.08c-.85-.15-1.52-.4-2.02-.75-.5-.35-.83-.83-.98-1.44-.16-.61-.23-1.19-.23-1.73s.04-1.31.12-2.31c.08-1,.12-1.77.12-2.31,0-1-.35-1.63-1.04-1.9-.69-.27-1.92-.4-3.69-.4-5.23,0-8.31,2.31-9.23,6.92-.23,1-.83,1.83-1.79,2.48-.96.65-1.87.98-2.71.98-1.15,0-2.08-.42-2.77-1.27-.69-.85-1.04-1.81-1.04-2.88,0-2.23,2.42-8.11,7.27-17.65,8.46-17.38,15.15-26.08,20.08-26.08,4.46,0,6.69,4.46,6.69,13.38-.16,2.85-.75,8.48-1.79,16.9-1.04,8.42-1.79,13.37-2.25,14.83-.69,2.54-2.27,3.62-4.73,3.23ZM636.93,29.54c.46-3.08.69-5.06.69-5.94s-.31-1.44-.92-1.67c-.85-.46-1.62-.19-2.31.81-2.92,4.77-4.38,7.62-4.38,8.54,0,1.08.81,1.62,2.42,1.62,1.08,0,2.08-.31,3-.92.92-.61,1.42-1.42,1.5-2.42Z"/>
      <path class="cls-1" d="M684.12,52.15c-2-.54-3-2-3-4.38,0-1.15.21-2.61.63-4.38.42-1.77,1.13-4.38,2.13-7.85,1-3.46,1.81-6.31,2.42-8.54.23-.85-.02-1.4-.75-1.67-.73-.27-1.37-.06-1.9.63-.23.31-.83,1.15-1.79,2.54-.96,1.38-1.87,2.65-2.71,3.81-.85,1.15-1.42,1.85-1.73,2.08-1.46,1.46-2.98,2.02-4.56,1.67-1.58-.35-2.71-1.48-3.4-3.4-.23-.54-.52-1.83-.87-3.87-.35-2.04-.79-3.79-1.33-5.25-.54-1.46-1.19-2.19-1.96-2.19-1,0-2.25,2.15-3.75,6.46-1.5,4.31-2.71,8.62-3.63,12.92-.85,3.92-2.69,5.58-5.54,4.96-1-.31-1.79-.92-2.37-1.85-.58-.92-.83-1.92-.75-3,.08-.92.35-2.31.81-4.15,4.92-16.77,8.61-26.88,11.08-30.35,1.08-1.38,2.37-2.11,3.87-2.19,1.5-.08,2.87.54,4.1,1.85.38.39.77.87,1.15,1.44.38.58.79,1.29,1.21,2.13.42.85.75,1.56.98,2.13.23.58.58,1.48,1.04,2.71.46,1.23.81,2.12,1.04,2.65,1,2.54,2.38,2.69,4.15.46l4.73-5.88c3.23-4,5.81-6.58,7.73-7.73,1.92-1.15,3.73-1.31,5.42-.46,1.62.77,2.54,2.06,2.77,3.87.23,1.81-.12,4.48-1.04,8.02-5.31,21.08-8.39,32.58-9.23,34.5-1.08,2-2.73,2.77-4.96,2.31Z"/>
      <path class="cls-1" d="M701.19,48.92c-1.46-.54-2.27-1.73-2.42-3.58,0-.85.33-2.21.98-4.1.65-1.88,1.5-4.17,2.54-6.87,1.04-2.69,1.79-4.69,2.25-6,1.15-2.92,2.17-5.73,3.06-8.42.88-2.69,1.62-5.02,2.19-6.98.58-1.96.94-3.21,1.1-3.75,1.15-3.31,2.85-4.65,5.08-4.04,2.92.77,3.73,3.73,2.42,8.88-2.31,8-5.96,18.39-10.96,31.15-1.62,3.46-3.69,4.69-6.23,3.69Z"/>
      <path class="cls-1" d="M733.04,52.04c-.85-.38-1.48-1.06-1.9-2.02-.42-.96-.48-1.94-.17-2.94.46-1.62,4.31-11.69,11.54-30.23.23-1,.02-1.75-.63-2.25-.65-.5-1.67-.75-3.06-.75-5.39.16-8.27.23-8.65.23-2.92.15-4.98.02-6.17-.4-1.19-.42-1.9-1.56-2.13-3.4-.15-1.46.4-2.61,1.67-3.46,1.27-.85,3.06-1.27,5.37-1.27h29.88c9,0,14.04.19,15.12.58.08.08.19.15.35.23,1.69,1,2.35,2.42,1.96,4.27-.23,1.23-.85,2.1-1.85,2.6-1,.5-2.62.75-4.85.75-5.46,0-9.58-.04-12.35-.12-2.77-.08-4.65,1.19-5.65,3.81-.92,2.69-2.46,6.65-4.62,11.88-5.46,13.62-8.31,20.54-8.54,20.77-1.31,1.92-3.08,2.5-5.31,1.73Z"/>
      <path class="cls-1" d="M789,53.08c-.85-.15-1.52-.4-2.02-.75-.5-.35-.83-.83-.98-1.44-.16-.61-.23-1.19-.23-1.73s.04-1.31.12-2.31c.08-1,.12-1.77.12-2.31,0-1-.35-1.63-1.04-1.9-.69-.27-1.92-.4-3.69-.4-5.23,0-8.31,2.31-9.23,6.92-.23,1-.83,1.83-1.79,2.48-.96.65-1.87.98-2.71.98-1.15,0-2.08-.42-2.77-1.27-.69-.85-1.04-1.81-1.04-2.88,0-2.23,2.42-8.11,7.27-17.65,8.46-17.38,15.15-26.08,20.08-26.08,4.46,0,6.69,4.46,6.69,13.38-.16,2.85-.75,8.48-1.79,16.9-1.04,8.42-1.79,13.37-2.25,14.83-.69,2.54-2.27,3.62-4.73,3.23ZM787.96,29.54c.46-3.08.69-5.06.69-5.94s-.31-1.44-.92-1.67c-.85-.46-1.62-.19-2.31.81-2.92,4.77-4.38,7.62-4.38,8.54,0,1.08.81,1.62,2.42,1.62,1.08,0,2.08-.31,3-.92.92-.61,1.42-1.42,1.5-2.42Z"/>
      <path class="cls-1" d="M804,51.92c-2.85-.61-3.96-2.35-3.35-5.19.38-1.54,2.6-7.52,6.63-17.94,4.04-10.42,6.29-16.67,6.75-18.75.61-2.92,2.31-4.19,5.08-3.81,6.15.85,10.81,2.04,13.96,3.58,7.62,3.62,10.34,9.5,8.19,17.65-1.23,4.85-3.29,9.17-6.17,12.98-2.88,3.81-6.48,6.63-10.79,8.48-8.08,3.08-14.85,4.08-20.31,3ZM814.39,42.92c8.08-.77,14-5.92,17.77-15.46,2.46-6.23-.15-10.08-7.85-11.54-1.62-.38-2.73.15-3.35,1.62l-8.88,22.85c-.31.77-.21,1.42.29,1.96.5.54,1.17.73,2.02.58Z"/>
      <path class="cls-1" d="M856.15,50.65c-3,0-5.46-1.1-7.38-3.29-1.92-2.19-2.88-4.9-2.88-8.13,0-4.85,1.15-9.96,3.46-15.35,2.31-5.38,5.38-9.94,9.23-13.67,3.85-3.73,7.73-5.6,11.65-5.6,1.77,0,3.23.79,4.38,2.37,1.15,1.58,1.9,3.35,2.25,5.31s.52,4.1.52,6.4c.08,7.62-2.02,14.85-6.29,21.69-4.27,6.85-9.25,10.27-14.94,10.27ZM856.85,41.77c2.77.23,5.5-2.52,8.19-8.25,2.69-5.73,4.04-10.67,4.04-14.83,0-2.23-.65-3.35-1.96-3.35-2.46,0-5.21,2.83-8.25,8.48-3.04,5.65-4.56,10.29-4.56,13.9,0,2.69.85,4.04,2.54,4.04Z"/>
      <path class="cls-1" d="M886.96,52.44c-.85.81-1.85,1.21-3,1.21s-2.13-.4-2.94-1.21c-.81-.81-1.17-1.79-1.1-2.94.08-1.08.54-2.02,1.38-2.83.85-.81,1.85-1.17,3-1.1,1.08.08,2,.5,2.77,1.27.77.77,1.15,1.66,1.15,2.65,0,1.15-.42,2.13-1.27,2.94ZM886.15,36.35c-2.15-1-2.92-2.61-2.31-4.85.15-.77,1.34-4.77,3.58-12,2.23-7.23,3.69-12.46,4.38-15.69.85-2.85,2.42-4.08,4.73-3.69,1.23.23,2.25.83,3.06,1.79.81.96.98,2.17.52,3.63-.85,2.62-1.87,6.21-3.06,10.79-1.19,4.58-2.27,8.5-3.23,11.77-.96,3.27-1.79,5.44-2.48,6.52-1.15,1.92-2.88,2.5-5.19,1.73Z"/>
    </g>
  </g>
</svg>