<?xml version="1.0" encoding="UTF-8"?>
<svg id="Layer_2" data-name="Layer 2" xmlns="http://www.w3.org/2000/svg" viewBox="0 0 117.92 157.11">
  <defs>
    <style>
      .cls-1 {
        fill: #e67ea7;
      }
    </style>
  </defs>
  <g id="Layer_1-2" data-name="Layer 1">
    <path class="cls-1" d="M116.14,72.95c-2.23-6.3-9.05-12.15-15.96-12.06-.08-16.44,2.23-30.45-8.11-44.39C74.34-7.42,37.16-4.88,22.78,21.17c-7.07,12.8-4.73,25.7-5.05,39.72-6.89-.1-13.73,5.75-15.96,12.06-2.94,8.31-1.75,32.36.17,41.41,12.08,56.88,101.56,56.95,113.9.52,2.01-9.2,3.29-33.45.3-41.93ZM76.85,98.21c-.38.4-.82.68-1.27.97l-4.57,2.52c-1.09.62-1.22,1.17-.85,2.42.3,1.14.52,2.25.73,3.37l1.82,6.83c.17.91.44,1.75.61,2.67.26.93.02,1.95-.92,2.31-.96.45-1.92.91-2.94,0-1.77-1.77-3.56-3.45-5.34-5.13-1.11-.94-2.24-1.78-3.24-2.79-.7-.65-1.06-.34-1.48.24-1.66,2.23-3.34,4.56-5.09,6.77-1.06,1.3-2.1,2.52-3.26,3.8-.87.86-1.85,1.02-2.89.59-1.1-.55-1.65-1.45-1.57-2.6.34-2.25.69-4.59,1.21-6.8.3-1.68.98-3.36,1.56-5.07-1.59-.08-3.01-.12-4.27-.41-1.82-.33-3.6-.84-5.39-1.26l-.72-.17c-2.12-1.08-2.35-3.75-.39-5.23,1.16-.89,2.47-1.65,3.86-2.3,2.37-1.19,4.89-2.25,7.39-3.22.94-.36,1.52-.81,2-1.67,1.56-3.03,3.19-5.95,4.33-9.18.66-1.59,2.11-2.13,3.64-1.38,1.35.7,2.37,1.62,2.97,3.12.97,2.36,2.38,4.44,3.48,6.63.39.77.82.97,1.62.77.9-.18,1.77-.27,2.66-.44,1.55-.12,3-.27,4.53-.3,1.23,0,2.14.6,2.64,1.68.64,1.31.09,2.45-.86,3.29ZM82.15,60.89h-46.38v-24.16c0-.69,1.74-5.16,2.23-6.14,7.96-16.08,32.52-16.91,41.21-1.23.63,1.13,2.94,6.49,2.94,7.37v24.16Z"/>
  </g>
</svg>