<?xml version="1.0" encoding="UTF-8"?>
<svg id="Layer_2" data-name="Layer 2" xmlns="http://www.w3.org/2000/svg" viewBox="0 0 73.43 73.43">
  <defs>
    <style>
      .cls-1 {
        fill: #e67ea7;
      }
    </style>
  </defs>
  <g id="Layer_1-2" data-name="Layer 1">
    <path class="cls-1" d="M43.73,36.71l28.45-28.45c1.66-1.66,1.66-4.35,0-6.02l-1-1c-1.66-1.66-4.35-1.66-6.02,0l-28.45,28.45L8.26,1.25C6.6-.42,3.91-.42,2.24,1.25l-1,1C-.42,3.91-.42,6.6,1.25,8.26l28.45,28.45L1.25,65.17c-1.66,1.66-1.66,4.35,0,6.02l1,1c1.66,1.66,4.35,1.66,6.02,0l28.45-28.45,28.45,28.45c1.66,1.66,4.35,1.66,6.02,0l1-1c1.66-1.66,1.66-4.35,0-6.02l-28.45-28.45Z"/>
  </g>
</svg>