<?xml version="1.0" encoding="UTF-8"?>
<svg id="Layer_2" data-name="Layer 2" xmlns="http://www.w3.org/2000/svg" viewBox="0 0 79.65 84.96">
  <defs>
    <style>
      .cls-1 {
        fill: #e67ea7;
      }
    </style>
  </defs>
  <g id="Layer_1-2" data-name="Layer 1">
    <path class="cls-1" d="M49.74,84.96h-19.82c-9.73,0-15.1,0-18.77-3.58-3.71-3.61-3.71-8.86-3.71-18.38V24.38c0-1.47,1.19-2.65,2.66-2.65s2.65,1.19,2.65,2.65v38.62c0,8.92.08,12.61,2.1,14.58,2.13,2.07,6.45,2.07,15.07,2.07h19.82c8.61,0,12.94,0,15.07-2.07,2.02-1.97,2.1-5.66,2.1-14.58V24.38c0-1.47,1.19-2.65,2.65-2.65s2.66,1.19,2.66,2.65v38.62c0,9.53,0,14.77-3.71,18.38-3.68,3.58-9.04,3.58-18.77,3.58ZM54.69,65.65c-1.47,0-2.66-1.19-2.66-2.65v-28.96c0-1.47,1.19-2.66,2.66-2.66s2.65,1.19,2.65,2.66v28.96c0,1.47-1.19,2.65-2.65,2.65ZM39.83,65.65c-1.47,0-2.66-1.19-2.66-2.65v-28.96c0-1.47,1.19-2.66,2.66-2.66s2.66,1.19,2.66,2.66v28.96c0,1.47-1.19,2.65-2.66,2.65ZM24.96,65.65c-1.47,0-2.65-1.19-2.65-2.65v-28.96c0-1.47,1.19-2.66,2.65-2.66s2.66,1.19,2.66,2.66v28.96c0,1.47-1.19,2.65-2.66,2.65ZM77,17.38H2.65c-1.47,0-2.65-1.19-2.65-2.66s1.19-2.66,2.65-2.66h19.65v-4.1c0-4.39,3.57-7.97,7.97-7.97h19.12c4.39,0,7.96,3.57,7.96,7.97v4.1h19.65c1.47,0,2.65,1.19,2.65,2.66s-1.19,2.66-2.65,2.66ZM27.61,12.07h24.43v-4.1c0-1.46-1.19-2.65-2.65-2.65h-19.12c-1.46,0-2.66,1.19-2.66,2.65v4.1Z"/>
  </g>
</svg>