<?xml version="1.0" encoding="UTF-8"?>
<svg id="Layer_2" data-name="Layer 2" xmlns="http://www.w3.org/2000/svg" viewBox="0 0 72.07 98.32">
  <defs>
    <style>
      .cls-1 {
        fill: #e67ea7;
      }
    </style>
  </defs>
  <g id="Layer_1-2" data-name="Layer 1">
    <g>
      <path class="cls-1" d="M68.28,98.32H3.79c-2.09,0-3.79-1.7-3.79-3.79s1.7-3.79,3.79-3.79h64.49c2.09,0,3.79,1.7,3.79,3.79s-1.7,3.79-3.79,3.79Z"/>
      <path class="cls-1" d="M36.03,82.82c-.09,0-.18,0-.27,0,0,0,0,0,0,0-.38-.03-.74-.11-1.07-.24-.49-.18-.94-.47-1.33-.86L6.48,54.84c-1.48-1.48-1.48-3.88,0-5.36,1.48-1.48,3.88-1.48,5.36,0l20.4,20.4V3.79c0-2.09,1.7-3.79,3.79-3.79s3.79,1.7,3.79,3.79v66.09l20.4-20.4c1.48-1.48,3.88-1.48,5.36,0,1.48,1.48,1.48,3.88,0,5.36l-26.87,26.87c-.39.39-.85.68-1.33.86-.34.13-.7.21-1.07.24,0,0,0,0,0,0-.09,0-.18,0-.27,0Z"/>
    </g>
  </g>
</svg>