<?xml version="1.0" encoding="UTF-8"?>
<svg id="Layer_2" data-name="Layer 2" xmlns="http://www.w3.org/2000/svg" viewBox="0 0 855.49 60.2">
  <defs>
    <style>
      .cls-1 {
        fill: #e57ea6;
      }
    </style>
  </defs>
  <g id="Layer_1-2" data-name="Layer 1">
    <g>
      <path class="cls-1" d="M10.21,58.65c-3.36,0-5.9-1.18-7.62-3.55-1.72-2.37-2.58-5.32-2.58-8.85.08-5.69,1.49-11.8,4.2-18.35,2.71-6.55,6.27-12.13,10.66-16.74,4.39-4.61,8.79-6.91,13.18-6.91,2.67,0,4.85.99,6.53,2.97,1.68,1.98,2.39,4.31,2.13,6.98-.26,2.41-1.29,3.96-3.1,4.65-2.07.69-3.75.17-5.04-1.55-.17-.17-.47-.49-.9-.97-.43-.47-.71-.75-.84-.84-.13-.08-.37-.21-.71-.39-.35-.17-.67-.17-.97,0-.3.17-.67.43-1.1.78-2.93,2.15-5.84,5.94-8.72,11.37-2.89,5.43-4.72,10.38-5.49,14.86-.43,2.41-.32,4.26.32,5.56.65,1.29,1.79,1.38,3.42.26.43-.26,1.03-.69,1.81-1.29.78-.6,1.31-.99,1.62-1.16.3-.17.71-.34,1.23-.52.52-.17,1.03-.26,1.55-.26,1.21,0,2.24.45,3.1,1.36.86.9,1.29,2,1.29,3.3,0,2.33-1.55,4.46-4.65,6.4s-6.2,2.91-9.3,2.91Z"/>
      <path class="cls-1" d="M50.14,56.2c-3.36,0-6.12-1.23-8.27-3.68-2.15-2.46-3.23-5.49-3.23-9.11,0-5.43,1.29-11.16,3.88-17.19,2.58-6.03,6.03-11.13,10.34-15.31,4.31-4.18,8.66-6.27,13.05-6.27,1.98,0,3.62.88,4.91,2.65,1.29,1.77,2.13,3.75,2.52,5.94.39,2.2.58,4.59.58,7.17.08,8.53-2.26,16.63-7.04,24.3-4.78,7.67-10.36,11.5-16.74,11.5ZM50.92,46.25c3.1.26,6.16-2.82,9.18-9.24,3.01-6.42,4.52-11.95,4.52-16.61,0-2.5-.73-3.75-2.2-3.75-2.76,0-5.84,3.17-9.24,9.5-3.4,6.33-5.1,11.52-5.1,15.57,0,3.02.95,4.52,2.84,4.52Z"/>
      <path class="cls-1" d="M86.45,54.39c-2.67.35-4.65-.17-5.94-1.55-1.29-1.38-1.72-3.36-1.29-5.94.26-2.41,2.65-9.63,7.17-21.65s7.39-18.59,8.59-19.71c1.38-1.38,2.89-1.76,4.52-1.16,3.1.86,3.75,3.92,1.94,9.18-5.86,14.82-9.13,23.35-9.82,25.59-.6,1.9-.63,3.15-.06,3.75.56.6,1.83.82,3.81.65,3.88-.86,7.24-1.08,10.08-.65,2.84.43,4.26,1.94,4.26,4.52,0,2.33-1.34,3.79-4.01,4.39-1.12.17-3.99.56-8.59,1.16-4.61.6-8.16,1.08-10.66,1.42Z"/>
      <path class="cls-1" d="M118.89,59.17c-2.67-1.12-4.01-3.14-4.01-6.07,0-3.27,2.84-12.06,8.53-26.36,4.48-11.97,7.11-18.74,7.88-20.29,1.46-2.58,3.57-3.88,6.33-3.88.86,0,3.14-.02,6.85-.06,3.7-.04,6.76-.06,9.18-.06h5.69c1.12.09,2.07.58,2.84,1.49.78.9,1.16,1.96,1.16,3.17-.17,2.24-1.47,3.66-3.88,4.26-1.9.43-7.15.65-15.77.65-3.19-.08-5.17,1.34-5.94,4.26l-2.33,6.2c-.78,2.33.04,3.58,2.46,3.75,5.34.6,8.53,1.34,9.56,2.2,1.03.86,1.29,2.28.78,4.26-.43,1.98-1.68,3.06-3.75,3.23-1.29.17-2.84.17-4.65,0-1.81-.17-3.71-.19-5.69-.06-1.98.13-3.28.45-3.88.97-1.12,1.12-2.41,4.57-3.88,10.34-.43,1.47-.09,2.41,1.03,2.84,1.12.43,2.71.65,4.78.65h9.82c4.14,0,6.2,1.47,6.2,4.39-.17,3.1-2.2,4.78-6.07,5.04-3.53.17-8.01.17-13.44,0-5.43-.17-8.7-.47-9.82-.9Z"/>
      <path class="cls-1" d="M173.55,58.65c-3.36,0-5.9-1.18-7.62-3.55-1.72-2.37-2.58-5.32-2.58-8.85.08-5.69,1.49-11.8,4.2-18.35,2.71-6.55,6.27-12.13,10.66-16.74,4.39-4.61,8.79-6.91,13.18-6.91,2.67,0,4.85.99,6.53,2.97,1.68,1.98,2.39,4.31,2.13,6.98-.26,2.41-1.29,3.96-3.1,4.65-2.07.69-3.75.17-5.04-1.55-.17-.17-.47-.49-.9-.97-.43-.47-.71-.75-.84-.84-.13-.08-.37-.21-.71-.39-.35-.17-.67-.17-.97,0-.3.17-.67.43-1.1.78-2.93,2.15-5.84,5.94-8.72,11.37-2.89,5.43-4.72,10.38-5.49,14.86-.43,2.41-.32,4.26.32,5.56.65,1.29,1.79,1.38,3.42.26.43-.26,1.03-.69,1.81-1.29.78-.6,1.31-.99,1.62-1.16.3-.17.71-.34,1.23-.52.52-.17,1.03-.26,1.55-.26,1.21,0,2.24.45,3.1,1.36.86.9,1.29,2,1.29,3.3,0,2.33-1.55,4.46-4.65,6.4s-6.2,2.91-9.3,2.91Z"/>
      <path class="cls-1" d="M212.19,58.65c-3.36,0-5.9-1.18-7.62-3.55-1.72-2.37-2.58-5.32-2.58-8.85.08-5.69,1.49-11.8,4.2-18.35,2.71-6.55,6.27-12.13,10.66-16.74,4.39-4.61,8.79-6.91,13.18-6.91,2.67,0,4.85.99,6.53,2.97,1.68,1.98,2.39,4.31,2.13,6.98-.26,2.41-1.29,3.96-3.1,4.65-2.07.69-3.75.17-5.04-1.55-.17-.17-.47-.49-.9-.97-.43-.47-.71-.75-.84-.84-.13-.08-.37-.21-.71-.39-.35-.17-.67-.17-.97,0-.3.17-.67.43-1.1.78-2.93,2.15-5.84,5.94-8.72,11.37-2.89,5.43-4.72,10.38-5.49,14.86-.43,2.41-.32,4.26.32,5.56.65,1.29,1.79,1.38,3.42.26.43-.26,1.03-.69,1.81-1.29.78-.6,1.31-.99,1.62-1.16.3-.17.71-.34,1.23-.52.52-.17,1.03-.26,1.55-.26,1.21,0,2.24.45,3.1,1.36.86.9,1.29,2,1.29,3.3,0,2.33-1.55,4.46-4.65,6.4s-6.2,2.91-9.3,2.91Z"/>
      <path class="cls-1" d="M243.34,54.26c-1.64-.6-2.54-1.94-2.71-4.01,0-.95.37-2.48,1.1-4.59.73-2.11,1.68-4.67,2.84-7.69,1.16-3.01,2-5.25,2.52-6.72,1.29-3.27,2.43-6.42,3.42-9.43.99-3.02,1.81-5.62,2.46-7.82.65-2.2,1.05-3.6,1.23-4.2,1.29-3.7,3.19-5.21,5.69-4.52,3.27.86,4.18,4.18,2.71,9.95-2.58,8.96-6.68,20.59-12.28,34.89-1.81,3.88-4.14,5.26-6.98,4.14Z"/>
      <path class="cls-1" d="M280.04,56.2c-3.36,0-6.12-1.23-8.27-3.68-2.15-2.46-3.23-5.49-3.23-9.11,0-5.43,1.29-11.16,3.88-17.19,2.58-6.03,6.03-11.13,10.34-15.31,4.31-4.18,8.66-6.27,13.05-6.27,1.98,0,3.62.88,4.91,2.65,1.29,1.77,2.13,3.75,2.52,5.94.39,2.2.58,4.59.58,7.17.08,8.53-2.26,16.63-7.04,24.3-4.78,7.67-10.36,11.5-16.74,11.5ZM280.81,46.25c3.1.26,6.16-2.82,9.18-9.24,3.01-6.42,4.52-11.95,4.52-16.61,0-2.5-.73-3.75-2.2-3.75-2.76,0-5.84,3.17-9.24,9.5-3.4,6.33-5.1,11.52-5.1,15.57,0,3.02.95,4.52,2.84,4.52Z"/>
      <path class="cls-1" d="M341.68,59.43c-1.98.09-3.47-.67-4.46-2.26-.99-1.59-1.92-4.11-2.78-7.56-2.5-9.22-4.22-15.81-5.17-19.77-.78-3.1-1.72-4.65-2.84-4.65-1.55,0-3.23,3.51-5.04,10.53-1.81,7.02-2.8,12.34-2.97,15.96-.35,3.53-1.85,5.39-4.52,5.56-2.07.09-3.58-.82-4.52-2.71-1.29-2.58-.17-10.04,3.36-22.36.26-.86.69-2.41,1.29-4.65.6-2.24,1.1-4.01,1.49-5.3.39-1.29.9-2.95,1.55-4.98.65-2.02,1.25-3.64,1.81-4.85.56-1.21,1.21-2.43,1.94-3.68.73-1.25,1.49-2.17,2.26-2.78.78-.6,1.55-.9,2.33-.9,1.98.09,3.53.78,4.65,2.07,1.12,1.29,2.41,3.45,3.88,6.46,1.29,3.1,3.23,9,5.82,17.7.52,1.81,1.46,2.07,2.84.78.86-.78,1.51-1.98,1.94-3.62,2.15-6.46,5.73-15.16,10.73-26.1,1.46-2.15,3.23-2.8,5.3-1.94,3.62,1.03,4.26,4.18,1.94,9.43-5.69,11.8-11.03,27.1-16.02,45.88-1.03,2.41-2.63,3.66-4.78,3.75Z"/>
      <path class="cls-1" d="M388.98,58.91c-.95-.17-1.7-.45-2.26-.84-.56-.39-.93-.92-1.1-1.62-.17-.69-.26-1.33-.26-1.94s.04-1.46.13-2.58c.08-1.12.13-1.98.13-2.58,0-1.12-.39-1.83-1.16-2.13-.78-.3-2.15-.45-4.14-.45-5.86,0-9.3,2.58-10.34,7.75-.26,1.12-.93,2.05-2,2.78-1.08.73-2.09,1.1-3.04,1.1-1.29,0-2.33-.47-3.1-1.42-.78-.95-1.16-2.02-1.16-3.23,0-2.5,2.71-9.09,8.14-19.77,9.48-19.47,16.97-29.21,22.49-29.21,5,0,7.5,5,7.5,14.99-.17,3.19-.84,9.5-2,18.93-1.16,9.43-2,14.97-2.52,16.61-.78,2.84-2.54,4.05-5.3,3.62ZM387.81,32.55c.52-3.44.78-5.66.78-6.66s-.35-1.62-1.03-1.87c-.95-.52-1.81-.21-2.58.9-3.28,5.34-4.91,8.53-4.91,9.56,0,1.21.9,1.81,2.71,1.81,1.21,0,2.33-.34,3.36-1.03,1.03-.69,1.59-1.59,1.68-2.71Z"/>
      <path class="cls-1" d="M444.16,59.17c-2.67-1.12-4.01-3.14-4.01-6.07,0-3.27,2.84-12.06,8.53-26.36,4.48-11.97,7.11-18.74,7.88-20.29,1.46-2.58,3.57-3.88,6.33-3.88.86,0,3.14-.02,6.85-.06,3.7-.04,6.76-.06,9.18-.06h5.69c1.12.09,2.07.58,2.84,1.49.78.9,1.16,1.96,1.16,3.17-.17,2.24-1.47,3.66-3.88,4.26-1.9.43-7.15.65-15.77.65-3.19-.08-5.17,1.34-5.94,4.26l-2.33,6.2c-.78,2.33.04,3.58,2.46,3.75,5.34.6,8.53,1.34,9.56,2.2,1.03.86,1.29,2.28.78,4.26-.43,1.98-1.68,3.06-3.75,3.23-1.29.17-2.84.17-4.65,0-1.81-.17-3.71-.19-5.69-.06-1.98.13-3.28.45-3.88.97-1.12,1.12-2.41,4.57-3.88,10.34-.43,1.47-.09,2.41,1.03,2.84,1.12.43,2.71.65,4.78.65h9.82c4.14,0,6.2,1.47,6.2,4.39-.17,3.1-2.2,4.78-6.07,5.04-3.53.17-8.01.17-13.44,0-5.43-.17-8.7-.47-9.82-.9Z"/>
      <path class="cls-1" d="M503.34,55.81c-3.28,0-6.33-.92-9.18-2.78-2.84-1.85-4.26-3.94-4.26-6.27,0-1.21.39-2.24,1.16-3.1.78-.86,1.72-1.29,2.84-1.29,1.03-.08,2.65.5,4.85,1.74,2.2,1.25,4.11,1.87,5.75,1.87,1.81,0,3.49-.71,5.04-2.13s2.33-2.86,2.33-4.33c-.09-2.24-2.76-5.12-8.01-8.66-2.84-1.98-5-3.79-6.46-5.43-1.47-1.64-2.2-3.49-2.2-5.56,0-4.22,2.43-7.88,7.3-10.98,4.87-3.1,9.93-4.65,15.18-4.65,2.67-.17,5,.28,6.98,1.36,1.98,1.08,2.97,2.48,2.97,4.2,0,1.38-.41,2.41-1.23,3.1-.82.69-1.64,1.08-2.46,1.16-.82.09-2.05.13-3.68.13h-.9c-3.62-.17-7.11.6-10.47,2.33-3.28,1.72-3.45,3.62-.52,5.69.43.35,1.27.97,2.52,1.87,1.25.9,2.07,1.49,2.46,1.74.39.26,1.05.78,2,1.55.95.78,1.57,1.34,1.87,1.68.3.35.77.88,1.42,1.62.65.73,1.08,1.38,1.29,1.94.21.56.5,1.23.84,2,.34.78.56,1.6.65,2.46.08.86.13,1.77.13,2.71,0,4.39-1.83,8.16-5.49,11.31-3.66,3.15-7.91,4.72-12.73,4.72Z"/>
      <path class="cls-1" d="M549.22,57.75c-.95-.43-1.66-1.18-2.13-2.26-.47-1.08-.54-2.17-.19-3.3.52-1.81,4.82-13.09,12.92-33.86.26-1.12.02-1.96-.71-2.52-.73-.56-1.87-.84-3.42-.84-6.03.17-9.26.26-9.69.26-3.27.17-5.58.02-6.91-.45-1.34-.47-2.13-1.74-2.39-3.81-.17-1.64.45-2.93,1.87-3.88,1.42-.95,3.42-1.42,6.01-1.42h33.47c10.08,0,15.72.22,16.93.65.08.09.21.17.39.26,1.89,1.12,2.63,2.71,2.2,4.78-.26,1.38-.95,2.35-2.07,2.91-1.12.56-2.93.84-5.43.84-6.12,0-10.73-.04-13.83-.13-3.1-.08-5.21,1.34-6.33,4.26-1.03,3.02-2.76,7.45-5.17,13.31-6.12,15.25-9.3,23-9.56,23.26-1.47,2.15-3.45,2.8-5.94,1.94Z"/>
      <path class="cls-1" d="M601.69,55.81c-2.41-.34-3.73-2.07-3.94-5.17-.22-3.1.19-6.25,1.23-9.43,0,.09.15-.67.45-2.26.3-1.59.71-3.64,1.23-6.14.52-2.5,1.05-5.1,1.62-7.82.56-2.71,1.08-5.28,1.55-7.69.47-2.41.84-4.18,1.1-5.3.6-2.58,1.62-4.46,3.04-5.62,1.42-1.16,3.47-1.7,6.14-1.62,7.41.43,13.14,3.62,17.19,9.56,4.05,5.51,3.49,10.64-1.68,15.38l-1.29,1.16c-1.38,1.03-2.24,1.85-2.58,2.46-.35.6-.28,1.19.19,1.74.47.56,1.44,1.27,2.91,2.13.34.17,1.29.71,2.84,1.62s2.67,1.57,3.36,2c5.6,3.19,9.18,5.51,10.73,6.98,1.55,1.47,1.68,3.23.39,5.3-1.72,2.5-4.7,2.54-8.92.13l-21.19-12.41c-2.84-1.72-4.7-2.41-5.56-2.07-.78.35-1.55,2.24-2.33,5.69-.17.86-.35,1.79-.52,2.78-.17.99-.3,1.77-.39,2.33-.09.56-.22,1.19-.39,1.87-.17.69-.3,1.21-.39,1.55-.09.35-.22.73-.39,1.16-.17.43-.35.73-.52.9-.17.17-.39.37-.65.58-.26.22-.54.32-.84.32h-1.03c-.39,0-.84-.04-1.36-.13ZM615.26,26.09c1.38,0,3.1-.58,5.17-1.74,2.07-1.16,3.1-2.35,3.1-3.55,0-1.03-.84-2.26-2.52-3.68-1.68-1.42-3.17-2.13-4.46-2.13-1.38.09-2.5,1.77-3.36,5.04-1.03,4.05-.35,6.07,2.07,6.07Z"/>
      <path class="cls-1" d="M654.93,59.17c-2.67-1.12-4.01-3.14-4.01-6.07,0-3.27,2.84-12.06,8.53-26.36,4.48-11.97,7.11-18.74,7.88-20.29,1.46-2.58,3.57-3.88,6.33-3.88.86,0,3.14-.02,6.85-.06,3.7-.04,6.76-.06,9.18-.06h5.69c1.12.09,2.07.58,2.84,1.49.78.9,1.16,1.96,1.16,3.17-.17,2.24-1.47,3.66-3.88,4.26-1.9.43-7.15.65-15.77.65-3.19-.08-5.17,1.34-5.94,4.26l-2.33,6.2c-.78,2.33.04,3.58,2.46,3.75,5.34.6,8.53,1.34,9.56,2.2,1.03.86,1.29,2.28.78,4.26-.43,1.98-1.68,3.06-3.75,3.23-1.29.17-2.84.17-4.65,0-1.81-.17-3.71-.19-5.69-.06-1.98.13-3.28.45-3.88.97-1.12,1.12-2.41,4.57-3.88,10.34-.43,1.47-.09,2.41,1.03,2.84,1.12.43,2.71.65,4.78.65h9.82c4.14,0,6.2,1.47,6.2,4.39-.17,3.1-2.2,4.78-6.07,5.04-3.53.17-8.01.17-13.44,0-5.43-.17-8.7-.47-9.82-.9Z"/>
      <path class="cls-1" d="M706.75,54.39c-2.67.35-4.65-.17-5.94-1.55-1.29-1.38-1.72-3.36-1.29-5.94.26-2.41,2.65-9.63,7.17-21.65s7.39-18.59,8.59-19.71c1.38-1.38,2.89-1.76,4.52-1.16,3.1.86,3.75,3.92,1.94,9.18-5.86,14.82-9.13,23.35-9.82,25.59-.6,1.9-.63,3.15-.06,3.75.56.6,1.83.82,3.81.65,3.88-.86,7.24-1.08,10.08-.65,2.84.43,4.26,1.94,4.26,4.52,0,2.33-1.34,3.79-4.01,4.39-1.12.17-3.99.56-8.59,1.16-4.61.6-8.16,1.08-10.66,1.42Z"/>
      <path class="cls-1" d="M742.55,54.39c-2.67.35-4.65-.17-5.94-1.55-1.29-1.38-1.72-3.36-1.29-5.94.26-2.41,2.65-9.63,7.17-21.65s7.39-18.59,8.59-19.71c1.38-1.38,2.89-1.76,4.52-1.16,3.1.86,3.75,3.92,1.94,9.18-5.86,14.82-9.13,23.35-9.82,25.59-.6,1.9-.63,3.15-.06,3.75.56.6,1.83.82,3.81.65,3.88-.86,7.24-1.08,10.08-.65,2.84.43,4.26,1.94,4.26,4.52,0,2.33-1.34,3.79-4.01,4.39-1.12.17-3.99.56-8.59,1.16-4.61.6-8.16,1.08-10.66,1.42Z"/>
      <path class="cls-1" d="M798.89,58.91c-.95-.17-1.7-.45-2.26-.84-.56-.39-.93-.92-1.1-1.62-.17-.69-.26-1.33-.26-1.94s.04-1.46.13-2.58c.08-1.12.13-1.98.13-2.58,0-1.12-.39-1.83-1.16-2.13-.78-.3-2.15-.45-4.14-.45-5.86,0-9.3,2.58-10.34,7.75-.26,1.12-.93,2.05-2,2.78-1.08.73-2.09,1.1-3.04,1.1-1.29,0-2.33-.47-3.1-1.42-.78-.95-1.16-2.02-1.16-3.23,0-2.5,2.71-9.09,8.14-19.77,9.48-19.47,16.97-29.21,22.49-29.21,5,0,7.5,5,7.5,14.99-.17,3.19-.84,9.5-2,18.93-1.16,9.43-2,14.97-2.52,16.61-.78,2.84-2.54,4.05-5.3,3.62ZM797.73,32.55c.52-3.44.78-5.66.78-6.66s-.35-1.62-1.03-1.87c-.95-.52-1.81-.21-2.58.9-3.28,5.34-4.91,8.53-4.91,9.56,0,1.21.9,1.81,2.71,1.81,1.21,0,2.33-.34,3.36-1.03,1.03-.69,1.59-1.59,1.68-2.71Z"/>
      <path class="cls-1" d="M831.2,55.81c-3.28,0-6.33-.92-9.18-2.78-2.84-1.85-4.26-3.94-4.26-6.27,0-1.21.39-2.24,1.16-3.1.78-.86,1.72-1.29,2.84-1.29,1.03-.08,2.65.5,4.85,1.74,2.2,1.25,4.11,1.87,5.75,1.87,1.81,0,3.49-.71,5.04-2.13s2.33-2.86,2.33-4.33c-.09-2.24-2.76-5.12-8.01-8.66-2.84-1.98-5-3.79-6.46-5.43-1.47-1.64-2.2-3.49-2.2-5.56,0-4.22,2.43-7.88,7.3-10.98,4.87-3.1,9.93-4.65,15.18-4.65,2.67-.17,5,.28,6.98,1.36,1.98,1.08,2.97,2.48,2.97,4.2,0,1.38-.41,2.41-1.23,3.1-.82.69-1.64,1.08-2.46,1.16-.82.09-2.05.13-3.68.13h-.9c-3.62-.17-7.11.6-10.47,2.33-3.28,1.72-3.45,3.62-.52,5.69.43.35,1.27.97,2.52,1.87,1.25.9,2.07,1.49,2.46,1.74.39.26,1.05.78,2,1.55.95.78,1.57,1.34,1.87,1.68.3.35.77.88,1.42,1.62.65.73,1.08,1.38,1.29,1.94.21.56.5,1.23.84,2,.34.78.56,1.6.65,2.46.08.86.13,1.77.13,2.71,0,4.39-1.83,8.16-5.49,11.31-3.66,3.15-7.91,4.72-12.73,4.72Z"/>
    </g>
  </g>
</svg>