<?xml version="1.0" encoding="UTF-8"?>
<svg id="Layer_2" data-name="Layer 2" xmlns="http://www.w3.org/2000/svg" viewBox="0 0 85.05 85.05">
  <defs>
    <style>
      .cls-1 {
        fill: #e67ea7;
      }
    </style>
  </defs>
  <g id="Layer_1-2" data-name="Layer 1">
    <g>
      <path class="cls-1" d="M42.52,5c20.69,0,37.52,16.83,37.52,37.52s-16.83,37.52-37.52,37.52S5,63.22,5,42.52,21.83,5,42.52,5M42.52,0C19.04,0,0,19.04,0,42.52s19.04,42.52,42.52,42.52,42.52-19.04,42.52-42.52S66.01,0,42.52,0h0Z"/>
      <path class="cls-1" d="M57.41,24.24c3.99-.48,6.93,3,5.77,6.9-.29.98-1.4,2.2-2.04,3.03-6.76,8.73-14.57,16.74-21.46,25.37-2.98,2.27-5.27,1.28-7.88-.82-1.67-1.34-8.18-6.95-9.15-8.35-2.73-3.92.28-9.02,5.04-8.42,2.6.33,5.52,4.13,7.51,5.77h.84s17.06-20.47,17.06-20.47c1.42-1.31,2.22-2.77,4.31-3.03Z"/>
    </g>
  </g>
</svg>