<?xml version="1.0" encoding="UTF-8"?>
<svg id="Layer_2" data-name="Layer 2" xmlns="http://www.w3.org/2000/svg" viewBox="0 0 32 32">
  <defs>
    <style>
      .cls-1 {
        fill: #e67ea7;
      }
    </style>
  </defs>
  <g id="Layer_1-2" data-name="Layer 1">
    <path class="cls-1" d="M27.61,29.04c-.75.37-1.51.73-2.31,0-1.39-1.42-2.79-2.77-4.2-4.12-.87-.75-1.76-1.43-2.54-2.24-.55-.52-.83-.28-1.16.19-1.3,1.79-2.62,3.66-4,5.43-.84,1.05-1.65,2.02-2.56,3.05-.68.69-1.45.82-2.27.47-.87-.44-1.3-1.17-1.24-2.09.26-1.81.54-3.69.95-5.46.23-1.35.77-2.7,1.23-4.07-1.25-.07-2.36-.1-3.35-.33-1.43-.26-2.82-.67-4.24-1.01l-.57-.14c-1.66-.86-1.84-3.01-.31-4.2.91-.72,1.94-1.33,3.03-1.85,1.86-.96,3.84-1.81,5.81-2.59.74-.29,1.19-.65,1.57-1.34,1.23-2.43,2.51-4.78,3.4-7.37.52-1.28,1.66-1.71,2.86-1.11,1.06.57,1.86,1.3,2.33,2.5.76,1.9,1.87,3.56,2.73,5.33.31.62.64.78,1.27.62.7-.14,1.39-.21,2.09-.36,1.22-.1,2.36-.22,3.56-.24.97,0,1.68.48,2.07,1.35.5,1.06.07,1.96-.68,2.64-.3.32-.65.55-1,.77l-3.59,2.02c-.86.5-.96.94-.67,1.94.24.91.41,1.81.57,2.71l1.43,5.48c.13.73.35,1.41.48,2.14.2.75.02,1.56-.72,1.85Z"/>
  </g>
</svg>