<?xml version="1.0" encoding="UTF-8"?>
<svg id="Layer_2" data-name="Layer 2" xmlns="http://www.w3.org/2000/svg" viewBox="0 0 531.28 135.83">
  <defs>
    <style>
      .cls-1 {
        fill: #e57ea6;
      }
    </style>
  </defs>
  <g id="Layer_1-2" data-name="Layer 1">
    <g>
      <path class="cls-1" d="M484.1,45.41c-.46.34-.92.69-1.59.34-1.18-.69-2.36-1.32-3.54-1.96-.72-.34-1.44-.64-2.11-1.03-.46-.24-.62-.05-.77.29-.62,1.32-1.23,2.69-1.9,4.02-.41.78-.82,1.52-1.28,2.3-.36.54-.87.73-1.49.64-.67-.15-1.08-.54-1.18-1.13-.1-1.18-.21-2.4-.21-3.57-.05-.88.1-1.81.21-2.74-.87.15-1.64.29-2.36.29-1.03.05-2.05,0-3.08,0h-.41c-1.28-.29-1.75-1.62-.87-2.6.51-.59,1.13-1.13,1.8-1.62,1.13-.88,2.36-1.71,3.6-2.5.46-.29.72-.59.87-1.08.46-1.71.98-3.38,1.18-5.14.15-.88.87-1.32,1.8-1.13.82.2,1.49.54,2,1.22.82,1.08,1.85,1.96,2.72,2.94.31.34.56.39.98.2.46-.2.92-.34,1.39-.54.82-.24,1.59-.49,2.41-.69.67-.15,1.23.05,1.64.54.51.59.36,1.22-.05,1.76-.15.24-.36.44-.56.64l-2.16,1.81c-.51.44-.51.73-.15,1.32.31.54.56,1.08.82,1.62l1.85,3.23c.21.44.46.83.67,1.27.26.44.26.98-.21,1.27Z"/>
      <path class="cls-1" d="M51.02,77.31c-.5,6.6-3.64,15.4-6.78,19.36-3.97,5.06-4.63,5.5-8.43,6.82-2.98.88-4.79,1.32-3.31.77.5-.22.33-.22-.17-.22-.33,0-.83.11-.83.33-.33.33-1.16.44-3.14.22-2.98-.33-5.13-.66-5.79-1.1-.33-.22-.99-.44-1.32-.33s-.5.11-.33-.11c.17-.11-.17-.33-.66-.44-.99-.11-2.81-1.43-7.28-4.73-2.32-1.65-2.65-2.2-1.82-2.42.33-.11,0-.66-.99-1.87-.66-.88-1.65-2.31-2.15-3.19-.33-.77-.83-1.65-1.16-1.87-.17-.33-.33-.66-.33-.88s-.5-1.21-1.16-2.2c-.5-1.1-1.16-2.31-1.32-2.86-2.15-5.28-2.15-5.39-2.81-5.28-.5,0-.66-.22-.66-1.1-.17-.66,0-1.1.17-1.1s.17.11.17.44c0,.22.17.55.33.77.33.22.33-.22.33-1.21,0-1.32-.16-1.43-.66-1.21-.5.11-.66.11-.66-.22,0-.22,0-.33.17-.33.5.11.5-.11.5-.66q0-.44-.33-.11c-.17.22-.33.22-.5.11-.17-.77,0-.99.33-1.32.17-.22.17-.33-.17-.33s-.33-.11,0-.44c.5-.44.5-.55,0-.66-.17-.11-.33-.33-.17-.44s.33-1.54.33-3.08c.17-2.97.5-6.38.66-6.49s0-.33-.17-.55c-.17-.33-.17-.55,0-.66.17,0,.33-.55.17-1.1-.17-.66,0-.99.33-.99s.33-.44.16-1.43c-.16-.99,0-1.54.33-1.87.17-.22.5-1.1.5-1.98.17-1.65.17-2.53.66-3.96.17-.44.33-1.21.33-1.76,0-.44.33-1.32.49-1.98.17-.66.17-1.32,0-1.65-.17-.22,0-.66.17-.77.33-.22.5-.66.5-.99.17-1.98.5-3.41.99-3.74.16-.11.33-.77.49-1.32.17-1.21,1.32-2.31,1.32-1.32,0,.33.17.55.33.44.16-.11.33-.44.33-.77s.17-.66.5-.77c.17,0,.33-.22.33-.44s-.17-.33-.33-.33c-.33,0-.5.11-.5.44,0,.55-.49.88-.83.55-.17-.22,0-.55.33-.88.33-.22.49-.77.49-.99s.17-.33.33-.33c.33.11.33.33.33.66-.17.22,0,0,.33-.44.66-.66.66-.88.17-1.32-.33-.44-.17-.77.66-1.87.49-.88.99-1.76,1.16-2.09,0-.33.33-.77.5-.99.33-.22.83-.88,1.32-1.43.33-.55.99-1.1,1.32-1.43.17-.22.83-.66,1.32-.99.66-.66,1.49-.88.99-.33-.17.11,0,.22.17.11s.33-.33.17-.55c-.17-.44,3.97-2.97,5.62-3.52,1.32-.33,6.12-1.21,8.43-1.43,1.82-.22,6.28.22,7.44.66,2.65,1.1,6.95,5.72,6.28,6.82-.17.22-.17.33.17.22.66-.33,1.32,3.41,1.32,7.59,0,4.51-.66,6.38-1.82,6.27-.33,0-.66.22-.99.66-.33.66-.66.77-2.81.55-.66,0-1.98-2.86-2.15-4.84-.17-.99-.17-2.2-.33-2.64,0-.44-.17-.77-.33-.77s-.33-.33-.33-.77c0-.33-.17-.77-.33-.88-.17,0-.33-.44-.17-.88.33-.99-.5-2.97-1.49-3.08-.33-.11-.66-.22-.66-.44,0-.11-.66-.11-1.49-.11-1.49,0-1.82.11-4.3,1.76-3.64,2.53-4.8,3.74-6.45,6.38-3.81,6.38-7.11,18.37-7.94,29.37-.66,9.02-.17,16.39,1.66,19.91.33.66.66,1.54.66,1.98s0,.77.17.88c.5.22,1.49,1.76,1.82,2.53,0,.44.33.88.5.99.17.22.66.88.99,1.65,2.15,3.96,4.96,6.38,7.77,6.93.83.11,1.16,0,2.48-1.32.83-.77,1.65-1.87,2.15-2.42.33-.55.99-1.43,1.32-1.98.66-1.1,1.98-3.41,2.15-4.29,0-.22.33-.99.66-1.54.17-.66.66-1.65.66-2.2.17-.55.5-1.1.66-1.32.17-.22.33-.77.5-.99.83-2.97,2.81-6.27,3.97-7.15q.66-.44.66-.11c0,.33.66,0,1.82-.66,1.65-1.1,2.81-1.32,2.81-.66,0,.22.16.33.49.22.66-.11,1.32.55,1.32,1.32,0,.22.33.77.83,1.1.66.66.83.88.5,3.41ZM1.24,77.75c.33.22,1.32,3.3,1.16,3.52-.17,0-.5-.66-.83-1.54-.66-1.87-.83-2.42-.33-1.98ZM3.72,84.24c.83,1.76.5,1.54-.49-.22-.83-1.87-.99-2.09-.17-1.65.17.11.33.33.33.44-.17.11,0,.77.33,1.43ZM9.18,93.37c.66.77.99,1.43.83,1.43s-.83-.88-1.65-1.98c-1.82-2.53-2.98-4.73-2.81-4.95.16-.11.49.33.66.88.33.55.66.99.83.99s.33.11.17.22c0,.22.83,1.65,1.98,3.41ZM35.47,24.62c.33.22.33.44.33.44-.17.11-.33,0-.5-.33q-.16-.33.17-.11Z"/>
      <path class="cls-1" d="M101.28,99.69c-.17-.16-.17,0,0,.47.17.94-.17,2.68-.66,2.36-.17-.16-.33,0-.33.32,0,.63-1.32,1.26-2.15,1.1-.17-.16-.5-.47-.66-.95-.17-.32-.33-.63-.5-.63-.33,0-.17.32,0,.79.83,1.42.83,1.73-.17,1.42-.49,0-3.97-.16-4.3-.16-.99,0-1.82-.95-2.81-3.15-1.98-4.1-3.14-10.41-3.8-19.71-.17-2.84-.33-3.78-.83-3.78-.33,0-.5.16-.5.32s.17.32.33.16c.33-.16.5-.16.5-.16,0,.47-1.65,4.41-2.65,6.46-.5,1.26-1.16,2.84-1.32,3.47-.17.63-.5,1.1-.66.94s-.17.16,0,.47c.17.79-2.65,6.47-4.13,8.51-2.98,3.78-4.3,4.89-7.44,5.84-1.82.47-4.79.94-5.62.79-.5,0-.66-.31-.66-.63s-.49-.47-.99-.47c-1.16,0-2.15-1.42-3.64-5.05-2.32-6.3-2.32-11.35-.17-21.91.33-1.42.83-3.47,1.32-4.41.5-.95.83-1.89.83-2.21s.83-2.36,1.98-4.41c1.16-2.05,2.48-4.41,2.98-5.2.33-.94,2.15-3,3.97-4.73,4.3-4.1,6.78-5.05,11.08-3.78q5.13,1.57,5.13,1.1c0-.32.33-.47.66-.47.5,0,.83-.16.83-.47,0-.16.17-.16.5.16.17.32.33.63.33.95-.17.16,0,.31.17.31s.49-.31.66-.79q.17-.63.5,0c.33.32.66.47,1.32.32.83-.16.99,0,.99.94,0,1.1.17,1.1.33.32.5-1.89,4.13-.63,4.47,2.84.33,1.89.83,5.83,1.16,8.83.5,2.84.99,7.88,1.16,10.88.16,3,.33,6.31.49,7.1.17.94.33,2.52.33,3.63.33,2.21,1.49,9.14,1.98,11.19.33.79.33,1.26,0,1.1ZM82.1,59.33c-.17-.47-.33-.95-.33-1.26,0-.47-.66-.63-3.47-.47-.66.16-3.31,2.37-4.63,4.1-.49.47-.66.63-.49.32.16-.32.16-.47-.17-.16-.17.16-.33.32-.17.47.17.32,0,.47-.5.63-.17.16-.5.47-.5.63,0,.32-.66,1.73-1.49,3.15-1.82,3.31-3.14,6.46-3.14,7.72-.17.47-.33,1.42-.66,2.05-.17.47-.5,1.73-.5,2.52-.17.95-.33,2.36-.5,2.99-.33,1.89-.17,8.99.33,10.56.5,1.58,1.32,3,1.82,3,.17,0,.99-1.26,1.98-2.84.99-1.42,2.32-4.26,2.98-6.15.66-1.89,1.65-4.26,2.15-5.52,1.98-4.1,7.61-21.13,7.27-21.76ZM95.99,103.63c0-.16-3.31-.16-3.47,0s0,.16.33.16,3.31,0,3.14-.16Z"/>
      <path class="cls-1" d="M137.66,61.38c-.33.32-.5.63-.5.95s-.66.79-1.32,1.1c-.83.16-1.65.63-2.15.79-1.32.32-1.49.47-3.31.79-2.98.47-4.13,2.05-8.6,11.04-2.15,4.41-3.31,10.4-2.81,14.66v1.42c0,.31,0,3.15-.17,6.15,0,5.05,0,5.68-.66,6.31-.5.32-.83.79-.83.95,0,.31-.16.79-.66,1.1-.5.47-.66.47-1.49,0-.66-.47-.83-.47-.83.32,0,.47-.17.95-.33,1.1s-.33.16-.33-.16c0-.63-1.32-.79-1.82-.16-.33.63-.5.63-1.32.16-.66-.32-.83-.32-.99.16-.66.94-.99.63-1.98-1.42-.66-1.1-.99-2.36-.99-2.84q-.17-.63-.5,0c-.17.47-.17.32,0-.79,0-.95,0-1.58-.17-1.58-.33,0-.33-.94-.33-2.37.17-1.26,0-2.37-.17-2.37-.17-.16-.17-3.94,0-3.94,0,0,.17-2.52.17-5.52.17-6.31.33-8.51,1.16-17.82.33-3.47.66-6.78.5-7.41,0-1.89.83-7.41,1.32-7.09.17.16.17-.16,0-.95s0-1.1.17-1.1c.49,0,3.47-2.84,3.47-3.31,0-.16.17-.16.33,0,.33,0,.33.63.17,1.58-.17.94,0,1.42.17,1.42.33,0,.49-.47.49-1.1s.17-1.1.33-.95.33,0,.5-.47q.33-.47.83,0c.16.47.49.63.66.47s.17-.16.17.16c0,.16-.17.47-.33.47-.33.16,0,.63.66,1.42.99.94,1.32,1.58,1.32,2.84,0,.94,0,1.73.17,1.89v1.89c.17,1.1.33,1.58.66,1.58s.66-.16.66-.32c0-.31,3.14-3.63,3.47-3.63h.66c.17,0,.17-.16.17-.47-.17-.16-.17-.31,0-.16.17.16,1.49-.31,2.81-.94,2.98-1.42,6.61-1.89,6.95-.95.17.16.5.16.83.16.49-.16.99.32,1.65,1.1.66.63.83,1.26.66,1.26-.33,0-.33.16,0,.47.16.32.66.63.99.63s.5.16.33.63,0,.79.17.79c.83,0,.66,1.73,0,2.05ZM123.61,55.39c.33-.63,2.48-1.58,2.98-1.26.17,0,.17.16-.17.16s-.99.32-1.49.79c-.99.63-1.65.95-1.32.32Z"/>
      <path class="cls-1" d="M196.53,36.15c-.66.32-1.32.32-1.49.32-.17-.16,0,.16.49.47,1.32,1.1.66,1.58-1.65,1.58-1.32,0-1.98.16-1.82.32,0,.16.99.32,1.82.16,1.16-.16,1.65-.16,1.65.16,0,1.1-16.54,1.26-29.1.94q-12.4-.16-12.57,4.41c-.33,8.2,0,26.49.5,33.42.83,17.03,1.82,24.28,3.31,29.33,1.49,4.41,1.82,4.57,3.47,3.15,3.97-3.47,5.46-4.41,6.78-4.41.66.16.99.32.83.63-.17.63,1.32.63,1.82,0q.5-.63.83,0c.17.32.49.47.66.32.99-.32,2.15.63,1.98,1.42-.16.47-.16.63.33.63.66,0,.5,1.26-.33,2.52-.16.32-.16.95,0,1.26q.17.47-.16.47c-.17-.16-.5,0-.66.16,0,.31,0,.63.17.63,1.16.32-7.77,11.67-10.58,13.56-.99.79-4.13,1.26-5.13.79-.33-.16-1.32-.47-2.32-.63-.83-.16-1.98-.63-2.48-.95-1.82-1.58-5.79-7.72-5.79-8.99-.17-1.1-1.32-4.57-1.82-4.73-.17-.16-.17-.47-.17-.63.17-.32,0-.95-.17-1.26-.17-.47-.5-1.42-.66-2.05,0-.79-.17-1.89-.33-2.52-.33-2.52-1.16-12.77-1.66-23.49-.66-14.51.17-36.74,1.32-42.25.17-.79.17-.94-.33-.79-.17,0-3.31.16-6.61.32-3.31.16-7.77.47-9.76.63-3.64.32-7.11,0-7.11-.79,0-.31-.33-.63-.66-.79-.66-.47-.33-1.26.5-1.26.33,0,.5-.16.5-.47,0-.16-.17-.32-.33-.32-.33,0-.5-.32-.5-.94,0-.94.33-1.1,3.31-2.05,3.14-.95,12.73-2.84,19.51-3.78q2.98-.47,2.98-1.74c-.17-.63,0-1.1.17-.94.33.16.33-.16.17-.79-.17-.95.5-4.89.99-5.68,0-.16.16-1.1.16-2.05.17-2.37.66-4.89.99-4.73,0,.16.5-.32.83-.95.83-1.42,2.31-1.73,2.64-.63.17.32.33.32.66,0,.33-.16.83-.16,1.32,0,1.98.79,2.81,5.05,2.15,11.82-.33,2.21-.49,4.1-.33,4.1,0,0,1.32,0,2.81-.16,1.49-.16,5.62-.47,9.26-.47,6.95-.16,25.47.16,27.62,1.58,1.98,1.26,3.47,4.26,1.98,4.26-.83,0-.66.63.33,1.1q.66.32-.33.79Z"/>
      <path class="cls-1" d="M213.23,99.69c-.17-.16-.17,0,0,.47.17.94-.17,2.68-.66,2.36-.17-.16-.33,0-.33.32,0,.63-1.32,1.26-2.15,1.1-.17-.16-.5-.47-.66-.95-.17-.32-.33-.63-.5-.63-.33,0-.17.32,0,.79.83,1.42.83,1.73-.17,1.42-.49,0-3.97-.16-4.3-.16-.99,0-1.82-.95-2.81-3.15-1.98-4.1-3.14-10.41-3.8-19.71-.17-2.84-.33-3.78-.83-3.78-.33,0-.5.16-.5.32s.17.32.33.16c.33-.16.5-.16.5-.16,0,.47-1.65,4.41-2.65,6.46-.5,1.26-1.16,2.84-1.32,3.47-.17.63-.5,1.1-.66.94s-.17.16,0,.47c.17.79-2.65,6.47-4.13,8.51-2.98,3.78-4.3,4.89-7.44,5.84-1.82.47-4.79.94-5.62.79-.5,0-.66-.31-.66-.63s-.49-.47-.99-.47c-1.16,0-2.15-1.42-3.64-5.05-2.32-6.3-2.32-11.35-.17-21.91.33-1.42.83-3.47,1.32-4.41.5-.95.83-1.89.83-2.21s.83-2.36,1.98-4.41c1.16-2.05,2.48-4.41,2.98-5.2.33-.94,2.15-3,3.97-4.73,4.3-4.1,6.78-5.05,11.08-3.78q5.13,1.57,5.13,1.1c0-.32.33-.47.66-.47.5,0,.83-.16.83-.47,0-.16.17-.16.5.16.17.32.33.63.33.95-.17.16,0,.31.17.31s.49-.31.66-.79q.17-.63.5,0c.33.32.66.47,1.32.32.83-.16.99,0,.99.94,0,1.1.17,1.1.33.32.5-1.89,4.13-.63,4.47,2.84.33,1.89.83,5.83,1.16,8.83.5,2.84.99,7.88,1.16,10.88.16,3,.33,6.31.49,7.1.17.94.33,2.52.33,3.63.33,2.21,1.49,9.14,1.98,11.19.33.79.33,1.26,0,1.1ZM194.05,59.33c-.17-.47-.33-.95-.33-1.26,0-.47-.66-.63-3.47-.47-.66.16-3.31,2.37-4.63,4.1-.49.47-.66.63-.49.32.16-.32.16-.47-.17-.16-.17.16-.33.32-.17.47.17.32,0,.47-.5.63-.17.16-.5.47-.5.63,0,.32-.66,1.73-1.49,3.15-1.82,3.31-3.14,6.46-3.14,7.72-.17.47-.33,1.42-.66,2.05-.17.47-.5,1.73-.5,2.52-.17.95-.33,2.36-.5,2.99-.33,1.89-.17,8.99.33,10.56s1.32,3,1.82,3c.17,0,.99-1.26,1.98-2.84.99-1.42,2.32-4.26,2.98-6.15.66-1.89,1.65-4.26,2.15-5.52,1.98-4.1,7.61-21.13,7.27-21.76ZM207.94,103.63c0-.16-3.31-.16-3.47,0s0,.16.33.16,3.31,0,3.14-.16Z"/>
      <path class="cls-1" d="M255.56,110.1c-1.49,3.63-3.14,6.78-4.47,7.72-.5.47-.99,1.1-.99,1.42,0,.16-.33.32-.83.32-.33,0-.66.16-.5.32.17.47-1.82,1.42-4.63,2.36-1.82.63-7.77.79-9.59.16-.5-.16-1.65-.79-2.65-1.42-.99-.47-1.82-1.1-1.98-1.1s-.5-.32-.66-.63c0-.47-.33-.63-.49-.63-.5.32-3.64-3.31-5.62-6.15-.66-.95-1.49-1.89-1.82-2.05s-.5-.47-.5-.79-.33-.94-.83-1.26q-.66-.63.17-1.42c.33-.47.66-1.1.5-1.26-.33-.63.33-.47.83.16.33.32.66.47.83.47.5,0,.33-1.73-.33-1.89-.66-.32-.5-.95.33-.79.5.16.83,0,.83-.32.17-.32.5-.47.66-.32.33,0,.99.16,1.65.32q1.16.32.5-.47c-.5-.47-.5-.79-.33-.79s.5.16.5.32.5.32.99.32c.66,0,1.66.32,2.15.63.66.47,1.32.79,1.49.79.83,0,3.14,1.26,3.14,1.57,0,.16.17.32.33.16.5-.31,2.15,1.74,2.15,2.68.17,1.89,2.15,3.15,3.8,2.36.66-.16,1.16-.32,1.32-.32s.49-.79.83-1.89c1.82-4.89-1.49-11.98-8.6-18.92-3.8-3.63-7.11-7.25-8.6-9.14-2.98-3.94-4.96-9.3-4.46-12.45.33-2.37,1.32-5.36,1.65-5.36.17,0,.33-.32.33-.63,0-.79,2.64-5.04,3.47-5.52.33-.32.66-.63.5-.79s.17-.32.66-.63c.5-.16.99-.32.99-.47s-.17-.16-.5,0c-.17.16,0-.16.5-.79,1.49-1.58,1.65-1.73,1.32-1.26-.17.47,0,.32.5-.16.5-.32.83-.79.66-.94s-.17-.16.17-.16c0,0,.49-.16.83-.47.33-.16,1.16-.79,1.82-1.42,3.31-2.68,9.92-3.63,12.9-1.89,1.66.94,2.48,2.84,1.49,3.63-.33.16-.5.47-.33.63.33.47-.83,1.42-2.48,2.05-3.31,1.42-5.46,3-8.6,6.62-1.65,2.05-2.98,3.94-2.98,4.26s-.16,1.1-.49,1.58c-.66,1.26-.66,1.42-.17,1.1.17,0,.33.47.33,1.26s-.17,1.42-.33,1.42c-.33,0-.5.16-.5.47,0,.16.17.32.5.16.17,0,.66.79,1.16,1.89.5,1.42,1.65,2.68,3.31,4.41,1.32,1.26,2.15,2.21,1.98,2.05-.5-.47-.99-.47-.99.16,0,.32.17.63.5.63.17,0,.5.32.5.79.17.63.49.94.99.94s.83.16.99.47c0,.32.5.63.66.79.5.16.5,0,.17-.63-.33-.63,0-.47.83.47.66.63,1.16,1.26.99,1.26-.5.31,0,.79.66.63.17-.16.66.16,1.16.63.33.31.49.63.17.63-.17,0,0,.63.49,1.26.5.63.99,1.1.99,1.1.17-.16.66.47,1.32,1.26.5.79,1.16,1.42,1.32,1.42s.33.16.33.47.17.63.33.63c.33,0,1.66,2.05,1.82,2.68,0,.32.33.79.66,1.1.83.79,2.32,3.94,2.65,5.52.66,4.26.66,6.15-.33,8.67ZM223.65,62.33c-.33.32-.5.95-.5,1.26q0,.63.17.32c.17-.32.5-.95.66-1.26q.33-.63-.33-.32ZM223.31,71.31c-.17-.32-.17-.16-.17.16,0,.47,0,.63.17.47s.17-.32,0-.63ZM227.94,103.79c0-.16-.17-.32-.33-.32-.33,0-.33.16-.17.32,0,.32.33.47.33.47,0,0,.17-.16.17-.47ZM232.74,105.84c-.17-.16-.33-.16-.5,0-.17,0,0,.16.17.16.33,0,.5-.16.33-.16ZM236.21,77.62c0-.16-.17-.31-.33-.31-.33-.16-.49-.16-.49.16,0,.16.17.32.49.32.17,0,.33,0,.33-.16ZM248.28,89.44c-.33-.16-.49-.16-.49,0,0,.47.49.95.66.63.17,0,0-.32-.17-.63ZM250.76,93.07c-.17-.32-.49-.63-.49-.63-.17,0,0,.32.16.63.17.47.5.79.66.79,0,0,0-.32-.33-.79ZM251.59,94.49q-.33-.32-.17.16c.17.32.33.63.5.47,0-.16,0-.47-.33-.63Z"/>
      <path class="cls-1" d="M293.93,89.92c-.1-.1-.1,0,0,.29.1.59-.1,1.66-.39,1.47-.1-.1-.2,0-.2.2,0,.39-.79.78-1.28.69-.1-.1-.29-.29-.39-.59-.1-.2-.2-.39-.29-.39-.2,0-.1.2,0,.49.49.88.49,1.08-.1.88-.29,0-2.36-.1-2.55-.1-.59,0-1.08-.59-1.67-1.96-1.18-2.54-1.87-6.46-2.26-12.23-.1-1.76-.2-2.35-.49-2.35-.2,0-.29.1-.29.2s.1.2.2.1c.2-.1.29-.1.29-.1,0,.29-.98,2.74-1.57,4.01-.29.78-.69,1.76-.79,2.15-.1.39-.29.68-.39.59s-.1.1,0,.29c.1.49-1.57,4.01-2.46,5.28-1.77,2.35-2.55,3.03-4.42,3.62-1.08.29-2.85.59-3.34.49-.29,0-.39-.19-.39-.39s-.29-.29-.59-.29c-.69,0-1.28-.88-2.16-3.13-1.38-3.91-1.38-7.04-.1-13.6.2-.88.49-2.15.79-2.74.29-.59.49-1.18.49-1.37s.49-1.47,1.18-2.74c.69-1.27,1.47-2.74,1.77-3.23.2-.59,1.28-1.86,2.36-2.93,2.55-2.54,4.03-3.13,6.58-2.35q3.05.98,3.05.68c0-.2.2-.29.39-.29.29,0,.49-.1.49-.29,0-.1.1-.1.29.1.1.2.2.39.2.59-.1.1,0,.19.1.19s.29-.19.39-.49q.1-.39.29,0c.2.2.39.29.79.2.49-.1.59,0,.59.59,0,.69.1.69.2.2.29-1.17,2.46-.39,2.65,1.76.2,1.17.49,3.62.69,5.48.29,1.76.59,4.89.69,6.75.1,1.86.2,3.91.29,4.4.1.59.2,1.56.2,2.25.2,1.37.88,5.67,1.18,6.95.2.49.2.78,0,.69ZM282.54,64.87c-.1-.29-.2-.59-.2-.78,0-.29-.39-.39-2.06-.29-.39.1-1.96,1.47-2.75,2.54-.29.29-.39.39-.29.2.1-.2.1-.29-.1-.1-.1.1-.2.2-.1.29.1.2,0,.29-.29.39-.1.1-.29.29-.29.39,0,.2-.39,1.07-.88,1.96-1.08,2.05-1.87,4.01-1.87,4.79-.1.29-.2.88-.39,1.27-.1.29-.29,1.08-.29,1.57-.1.59-.2,1.47-.29,1.86-.2,1.18-.1,5.58.2,6.56.29.98.79,1.86,1.08,1.86.1,0,.59-.78,1.18-1.76.59-.88,1.38-2.64,1.77-3.82.39-1.17.98-2.64,1.28-3.42,1.18-2.54,4.52-13.11,4.32-13.5ZM290.79,92.36c0-.1-1.97-.1-2.06,0s0,.1.2.1,1.97,0,1.87-.1Z"/>
      <path class="cls-1" d="M362.72,117.84c0,4.34-.17,8.24-.33,8.53s-.33.14-.33-.58c0-.87-.17-.87-.33.29-.16.72-.33,2.02-.49,2.75,0,1.3-.66,3.04-1.16,3.04-.17,0-.17-.29-.17-.58,0-.87-.49-.29-.83,1.01-.17.58-.5,1.01-.83,1.01-.17,0-.5.29-.5.43,0,.29-.17.72-.17,1.01s-.17.43-.83.29c-.33-.14-.66,0-.83.29-.33.72-2.48.58-2.48,0,0-.43-.17-.58-.49-.14-.5.29-.66.14-1.16-.43-.33-.58-.66-1.16-.66-1.59,0-.29-.16-.72-.66-.87-.33-.29-.5-.43-.33-.58.17-.14,0-.58-.33-.87-.66-.72-.83-2.6-1.16-26.03,0-9.83-.17-18.65-.33-19.52,0-.72-.17-1.73-.17-2.17,0-.58-.17-.58-.99-.58-.49.14-.99.43-1.16.72s-.5.29-.99.29c-.33-.14-.49-.14-.49,0,.17.29,0,.43-.5.58-.66.29-.83.29-6.28.87-2.81.29-3.8.58-4.47,1.16-.33.43-.83.72-.99.58s-.17,0-.17.14c0,.29.17.43.33.43.33,0,.33.43.17,1.3-.17,1.74-.5,2.03-.5.72q-.16-.87-.49.29c-.17.72-.17,1.16.17,1.3.49.29.49,2.31,0,5.35-.17,1.3-.5,4.05-.66,5.79-.17,2.17-.33,3.18-.5,2.6-.17-.72-.33-.58-.66.72-.16,1.16-.16,1.73.17,1.88.5.14.66,3.47.17,4.48-.17.43-.33.43-.49.14-.17-.43-.33-.29-.33.43,0,.43.17.87.33.72.16-.14.33.14.33.43,0,.43-.17.58-.33.43-.33-.14-.33.29-.17,1.3s.17,1.3-.17.87q-.33-.29-.33.58c0,.72,0,.87.33.43.33-.43.33-.29.33.43,0,.43-.17.87-.33.87s-.5.87-.66,1.74c-.33,2.46-.5,2.75-1.16,3.04-.5.14-.83.58-1.16,1.01-.99,1.88-3.47,1.59-3.97-.58-.17-.58-.66-1.74-.99-2.46-.83-1.59-1.98-6.65-2.64-11.85-.5-3.9-.66-19.66-.17-21.54q.17-1.16-1.32-.87c-.99,0-1.82.14-2.15.29-.33,0-.83-.14-1.16-.29-.5-.29-1.16-.43-1.49-.29-1.32.29-2.65-.29-2.65-.87,0-.43-.17-.72-.5-.87-.5-.14,1.16-2.17,1.82-2.17.33,0,.66-.14.66-.43.17-.29.17-.58-.17-.58-.17,0-.17-.14-.17-.29.33-.29.17-.43-.33-.29-1.16.43-.99-.43.5-1.59.83-.87,2.15-1.45,3.8-2.03,4.3-1.3,3.97-1.16,4.3-3.18.17-1.01.33-3.47.33-5.2.17-1.73.5-4.92.83-7.08.33-2.02.66-5.64.99-7.81.33-4.77,1.65-12.14,2.15-13.3.33-.43.5-1.16.5-1.59s.17-1.45.33-2.31c.33-.72.83-2.02.99-2.75.83-2.6,3.14-8.68,3.97-9.98,2.15-4.05,5.46-6.8,8.43-7.23,1.16-.14,1.99-.58,2.48-1.16.83-.72,1.16-.87,2.48-.72,1.16,0,1.49.14.99.58-.17.29-.33.43-.17.43,0,0,.5.14.99.14.5.14,1.16.43,1.32.72.66.72,1.98,1.16,1.98.72,0-.14-.17-.29-.5-.29-.17,0-.5-.29-.66-.72q-.17-.58.5-.14c1.16.72,3.8,3.33,3.97,3.76,0,.29.17.43.33.58s.5.58.83,1.01c.17.29.66.58,1.16.43.5,0,.83.14.83.43s-.17.58-.33.58c-.33,0-.33.29-.17.58,0,.43.17,1.01.33,1.44,0,.43.33,1.16.66,1.59.66.87.17,2.17-.66,1.73-.17-.14,0,.14.66.58.5.29.83.87.83,1.16-.33.72-.99.58-.99-.29,0-.43,0-.58-.16-.58-.17.14,0,.87,0,1.74.16,1.16.49,1.44.66,1.16,0-.43.33-.14.66.87.5,1.74,1.49,6.79,1.65,8.53,0,.58.17,1.01.17,1.16.17,0,.17.43.17.72.17.43.33,1.45.5,2.31.33,1.88.33,3.9.17,5.78q-.17,1.16-.5.14c-.17-.72-.17-.43,0,.87,0,1.01.17,2.31.17,2.89,0,.87.17.72.33-.58q.17-1.88.33-.43c0,.72.16,1.73.33,2.02.33.58.83,3.76.99,8.82.17,1.45.33,2.89.33,2.89.5.43.33,4.92-.17,5.2-.33.14-.33,0-.17-.29,0-.29,0-.72-.17-.87-.33-.43-.33.29-.33,1.59.17,1.88.17,2.17.83,2.03.5,0,.66.14.66,1.73,0,1.01,0,2.02.17,2.31.17.14-.17.72-.49,1.01-.5.58-.66,1.01-.5,3.04q.33,2.46.33.58.17-1.88.66-1.16c.66,1.01.5,6.07-.17,5.93-.16,0-.33.29-.33.58,0,.58,0,.72.49.43.5-.43.5-.29.5.43,0,.43-.17.87-.5,1.01-.33.14-.49.58-.49,1.74q0,1.45.33,0,.17-1.45.5.14c.17,1.01.33,1.88.33,2.31.17.29,0,.58-.17.58-.33,0-.33.14,0,.43.66.58.33,11.57-.17,11.42-.66-.14-.66.72,0,1.01.33,0,.5,1.73.5,8.1ZM321.37,87.05c0-.14-.17,0-.17.29s.17.29.17.14c.16,0,.16-.29,0-.43ZM326,36.01c-.17.14-.33.43-.33.72,0,.58.33.58.5-.29.17-.29,0-.43-.17-.43ZM326.67,41.07c0-.29-.17-.29-.17.14s0,.58.17.43.17-.43,0-.58ZM329.81,108.44c0,.29.16.58.33.43v-.58c-.17-.29-.33-.29-.33.14ZM330.14,110.18c-.17-.29-.33-.14-.33.14,0,.43.16.58.33.43v-.58ZM330.47,101.79c-.17-.29-.17-.14-.17.43s0,.87.17.58v-1.01ZM331.46,92.25c-.17.43-.33.87-.66,1.01s-.17.29.33.29c.33,0,.5-.29.5-1.01q0-1.01-.17-.29ZM330.8,97.89c-.17-.14-.17,0-.17.29,0,.14,0,.29.17.14.17-.14.17-.29,0-.43ZM330.8,99.19c0-.29-.17,0-.17.58s.17.87.17.58c.17-.29.17-.87,0-1.16ZM331.63,74.03c-.17-.14-.33-.14-.5,0-.17,0,0,.14.17.14.33,0,.5-.14.33-.14ZM332.29,85.74c0-.14-.17,0-.17.29,0,.14.17.29.17.14.17-.14.17-.29,0-.43ZM333.45,74.75c-.66.14-.83.43-.33.43.33,0,.5-.14.66-.29.17-.29,0-.29-.33-.14ZM333.78,73.16s-.33.14-.33.43c-.17.14-.17.29-.17.29.17,0,.33-.14.5-.29.17-.29.17-.43,0-.43ZM334.77,20.82c2.32-1.59,2.65-2.02,2.32-2.02s-1.32.58-2.15,1.3c-1.49,1.3-1.65,1.88-.17.72ZM334.27,70.42c-.17-.43-.17-.14-.33.29,0,.58.16.87.33.58v-.87ZM334.27,68.68c0,.14.17.29.33.14.17-.14.17-.29,0-.43s-.33,0-.33.29ZM334.93,74.61c-.17-.14-.33-.14-.5,0s0,.29.33.29c.17,0,.33-.14.17-.29ZM339.4,72.44c2.48-.43,5.29-.87,6.28-.87q1.82,0,1.65-3.61c-.17-2.02-.5-4.77-.66-6.07-.33-2.02-.99-7.81-1.32-12.14-.17-2.31-2.32-16.34-2.65-16.48,0,0-.16.14-.33.43-.17.72-.5,1.3-1.32,2.89-.17.58-.33,1.3-.33,1.74s-.49,1.16-1.16,1.59c-1.49,1.01-2.15,3.04-1.32,3.61.49.29.49.72.16,2.46-.16,1.16-.49,2.89-.49,3.61-.17,2.17-.5,3.04-1.16,2.75-.33-.14-.5,0-.5.14,0,.29.17.43.33.43.33,0,.33.72.17,2.46,0,1.45-.33,3.47-.33,4.48-.17,1.16-.33,2.89-.49,3.9,0,1.01-.17,2.31-.33,3.04,0,.72-.33,2.02-.5,3.04-.33,1.45-.5,3.33-.33,3.33,0,0,2.15-.29,4.63-.72ZM334.93,65.79c-.17-.14-.17,0-.17.14,0,.29,0,.43.17.29s.17-.29,0-.43ZM335.76,58.85c-.17,0-.33,0-.33.29s.17.29.33.14v-.43ZM338.9,18.08c0,.29.17.29.66.14.5-.29.83-.43.83-.58,0,0-.33-.14-.83,0-.33,0-.66.14-.66.43ZM339.9,38.61c-.17-.14-.33,0-.33.14,0,.29.17.43.33.29v-.43ZM341.88,73.31c-.17-.14-.66-.14-.83,0-.33.14-.17.14.5.14.5,0,.66,0,.33-.14ZM341.55,16.92c.33,0,.66-.29.83-.43s0-.29-.33-.29-.66.14-.83.29c0,.14,0,.43.33.43ZM344.85,72.73q-2.48.43,0,.29c1.32-.14,2.48-.14,2.48-.29.5-.43-.33-.43-2.48,0ZM355.93,33.4c-.17-.14-.17,0-.17.43s0,.72.17.43c.17-.14.17-.58,0-.87ZM356.27,35.86c0-.29-.17-.29-.17.14,0,.29,0,.58.17.43.17-.14.17-.43,0-.58ZM357.75,43.67c-.33-1.59-.49-1.59-.49-.14,0,.58.16,1.16.33,1.16s.17-.43.17-1.01ZM359.24,60.87c0-.14-.17,0-.17.29,0,.14.17.29.17.14.17-.14.17-.29,0-.43ZM359.74,64.49c-.17-.14-.33,0-.33.14,0,.29.16.43.33.29s.17-.29,0-.43ZM360.07,66.08c-.17-.29-.17,0-.17.58s0,.87.17.58.17-.87,0-1.16ZM360.57,79.09c0,.29.17.43.33.29v-.43c-.17-.14-.33-.14-.33.14ZM360.9,80.68v-.43c-.17-.14-.33,0-.33.14,0,.29.17.43.33.29ZM362.05,121.02q0-1.73-.33-.29c-.33,1.3-.33,2.02.17,2.02.17,0,.17-.87.17-1.73ZM361.89,114.95c-.17-.14-.17,0-.17.14,0,.29,0,.43.17.29s.17-.29,0-.43Z"/>
      <path class="cls-1" d="M393.63,13.61c0,3.94-.99,11.19-2.15,15.77-2.32,9.14-3.31,13.08-3.8,14.19-.33.63-.83,2.05-1.32,3.15-.33,1.1-1.16,3.31-1.82,5.05-.66,1.58-1.32,3.47-1.66,3.94-.16.63-.49,1.1-.66,1.1-.66,0-1.98,1.73-1.32,1.73.33,0,.17.16-.17.47-.49.32-.49.63-.16.95.33.32.33.47,0,.79-.33.16-.5.94-.5,1.42,0,.63-.17.94-.66.94s-.5.32-.33.79c0,.47,0,1.1-.17,1.73-.49,1.1-.83,9.62-.33,10.41.17.47.17.63-.16.79-.33.16-.33.63,0,2.05.33,1.42.49,2.05.16,2.05-.33.16-.33.32-.16.63.49.47.83,4.89.49,4.89s-.33.16-.17.32c.5.79.83,4.57.33,4.57-.17,0-.17.16,0,.32.33.16.66,2.21.99,4.57.17,2.37.5,5.05.5,5.83.16.94.33,3,.49,4.73.33,1.73.33,3.47.17,3.78,0,.47,0,.79.17.79.33,0,.5.47.33,1.1,0,.47.17,1.1.33,1.42.17.16.17.79.17,1.26-.17.47,0,.95.17.95s.33.47.33,1.26c0,.63.16,1.26.33,1.42s.33.63.33,1.26c-.17.63,0,.95.17.95s.17.32.17.63c-.17.32-.17.79.17,1.1.33.47.33.63-.17.94-.5.16-.66.47-.33.63.83.47-.33,1.26-1.82,1.26-.83,0-1.65.16-1.82.32-.5.47-1.49.16-2.15-.47-.33-.47-.83-.63-.99-.63-1.32.95-4.96-8.51-5.29-14.19-.17-1.26-.33-2.52-.5-2.68,0-.16-.33-1.73-.33-3.31-.17-1.73-.33-3.47-.33-3.94s-.16-1.1-.16-1.26c0-.32-.33-.47-.66-.47s-.5-.32-.5-1.58q0-1.42.33-.32c.5,2.36.83,1.58.5-2.05,0-2.05-.17-4.57-.17-5.52,0-3.31,0-5.05-.17-5.99,0-.47-.17-1.1-.17-1.58s-.17-.79-.5-.79c-.5,0-.66-.47-.66-1.74,0-1.58,0-1.73.66-.79.5.79.5.16.5-5.52,0-8.99.33-18.92.83-22.07.16-1.42.16-3.15.16-3.78-.33-2.21.5-11.04,1.99-21.44q1.16-8.67.83-7.72-.33.47-.33-.47c0-.94,0-1.1.5-.94.33.16.5-.16.66-1.26.17-.63.66-2.52.99-3.78.83-2.84.99-3.63.33-3.31-.66.47-.33-.32.66-1.26.5-.63.83-1.26.83-1.58s.17-.47.5-.47c.17,0,.33-.16.33-.47-.17-.79.99-2.68,2.32-3.63,1.16-.79,1.49-.95,4.3-.79,4.96.32,5.95.79,7.44,3.78,1.66,3.15,2.15,5.68,2.15,9.77ZM368,70.37c0-.32.17-.32.5-.16.17,0,.33.16.33.32,0,0-.17.16-.33.16-.33,0-.5-.16-.5-.31ZM368,74.63c0-.32.17-.32.33-.32.17.16.17.32,0,.47-.17.16-.33.16-.33-.16ZM368.33,75.73v1.26c-.17.32-.17.16-.17-.63,0-.63,0-.95.17-.63ZM368.5,61.07c0-.79.17-.95.17-.63.17.32.17.95,0,1.26,0,.32-.17,0-.17-.63ZM368.5,63.59c0-.32,0-.47.17-.32s.17.32,0,.47-.17,0-.17-.16ZM368.5,64.54c0-.16,0-.32.17-.16s.17.32,0,.47-.17,0-.17-.32ZM368.5,65.96c0-.16,0-.32.17-.16s.17.32,0,.47-.17,0-.17-.32ZM368.66,88.34c.17.16.17.32,0,.47s-.17,0-.17-.32c0-.16,0-.32.17-.16ZM368.66,91.18c.17.16.17.32,0,.47s-.17,0-.17-.32c0-.16,0-.32.17-.16ZM369.49,101.11v1.26c-.17.32-.17.16-.17-.63,0-.63,0-.95.17-.63ZM369.66,39.15c0-.63,0-.94.17-.63v1.26c-.17.47-.17.16-.17-.63ZM369.82,105.21v.94c-.17.32-.17,0-.17-.47s0-.63.17-.47ZM369.99,34.9c0-.16,0-.32.16-.16.17.16.17.32,0,.47-.16.16-.16,0-.16-.32ZM370.65,109.31c0,.16-.17.32-.33.32s-.33-.16-.33-.32c0-.32.16-.32.33-.32s.33,0,.33.32ZM370.32,31.59c0-.79.66-1.89.66-1.26,0,.32-.17.79-.33,1.1-.17.16-.33.32-.33.16ZM370.98,114.04v.47c-.17.16-.33,0-.33-.32,0-.16.17-.31.33-.16ZM371.81,117.2c.49,2.36.17,2.68-.33.32-.33-1.1-.5-1.89-.33-2.05.17,0,.33.63.66,1.74ZM371.14,27.49c0-.47,0-.79.17-.47v.95c-.17.16-.17,0-.17-.47ZM371.48,25.6v-.94c0-.63,0-1.1.33-1.1.17,0,.17.47,0,1.1,0,.47-.17.94-.33.94ZM371.81,21.02c0-.32.17-.32.17-.32.17.16.17.47,0,.47,0,.16-.17.16-.17-.16ZM372.14,21.97c0,.31,0,.63-.17.79,0,0-.17-.16-.17-.47,0-.47.17-.63.33-.31ZM372.14,19.13c0-.16.16-.32.33-.16s.17.32,0,.47-.33,0-.33-.32ZM373.13,14.4c.33-1.26.5-1.57.5-.63,0,.32-.17.79-.33,1.1-.33.47-.33.32-.17-.47ZM386.52,13.93c0-3.31-.83-5.68-1.82-5.36-1.82.63-3.81,9.3-4.96,21.44,0,.94-.17,3.15-.5,4.73-.33,2.52-.5,7.25-.83,14.03-.17,1.1,0,2.36,0,2.52.33.79.99.32.99-.63-.17-.47.17-1.57.5-2.36s.66-2.05.66-2.68c.16-.79.49-1.73.83-2.21s.5-1.26.5-1.89c0-1.26,1.32-7.1,1.98-8.67.17-.47.5-1.74.5-2.68.17-1.1.33-2.68.5-3.63,1.49-7.41,1.82-9.61,1.65-12.61ZM378.75,2.42s.33-.32.66-.63q.33-.63-.17-.16c-.66.47-.83.79-.5.79Z"/>
      <path class="cls-1" d="M446.88,37.58c-.66.32-1.32.32-1.49.32-.17-.16,0,.16.49.47,1.32,1.1.66,1.58-1.65,1.58-1.32,0-1.98.16-1.82.32,0,.16.99.32,1.82.16,1.16-.16,1.65-.16,1.65.16,0,1.1-16.54,1.26-29.1.94q-12.4-.16-12.57,4.41c-.33,8.2,0,26.49.5,33.42.83,17.03,1.82,24.28,3.31,29.33,1.49,4.41,1.82,4.57,3.47,3.15,3.97-3.47,5.46-4.41,6.78-4.41.66.16.99.32.83.63-.17.63,1.32.63,1.82,0s.5-.63.83,0c.17.32.49.47.66.32.99-.32,2.15.63,1.98,1.42-.16.47-.16.63.33.63.66,0,.5,1.26-.33,2.52-.16.32-.16.95,0,1.26q.17.47-.16.47c-.17-.16-.5,0-.66.16,0,.31,0,.63.17.63,1.16.32-7.77,11.67-10.58,13.56-.99.79-4.13,1.26-5.13.79-.33-.16-1.32-.47-2.32-.63-.83-.16-1.98-.63-2.48-.95-1.82-1.58-5.79-7.72-5.79-8.99-.17-1.1-1.32-4.57-1.82-4.73-.17-.16-.17-.47-.17-.63.17-.32,0-.95-.17-1.26-.17-.47-.5-1.42-.66-2.05,0-.79-.17-1.89-.33-2.52-.33-2.52-1.16-12.77-1.66-23.49-.66-14.51.17-36.74,1.32-42.25.17-.79.17-.94-.33-.79-.17,0-3.31.16-6.61.32-3.31.16-7.77.47-9.76.63-3.64.32-7.11,0-7.11-.79,0-.31-.33-.63-.66-.79-.66-.47-.33-1.26.5-1.26.33,0,.5-.16.5-.47,0-.16-.17-.32-.33-.32-.33,0-.5-.32-.5-.94,0-.94.33-1.1,3.31-2.05,3.14-.95,12.73-2.84,19.51-3.78q2.98-.47,2.98-1.74c-.17-.63,0-1.1.17-.94.33.16.33-.16.17-.79-.17-.95.5-4.89.99-5.68,0-.16.16-1.1.16-2.05.17-2.37.66-4.89.99-4.73,0,.16.5-.32.83-.95.83-1.42,2.31-1.73,2.64-.63.17.32.33.32.66,0,.33-.16.83-.16,1.32,0,1.98.79,2.81,5.05,2.15,11.82-.33,2.21-.49,4.1-.33,4.1,0,0,1.32,0,2.81-.16,1.49-.16,5.62-.47,9.26-.47,6.95-.16,25.47.16,27.62,1.58,1.98,1.26,3.47,4.26,1.98,4.26-.83,0-.66.63.33,1.1q.66.32-.33.79Z"/>
      <path class="cls-1" d="M463.58,101.11c-.17-.16-.17,0,0,.47.17.94-.17,2.68-.66,2.36-.17-.16-.33,0-.33.32,0,.63-1.32,1.26-2.15,1.1-.17-.16-.5-.47-.66-.95-.17-.32-.33-.63-.5-.63-.33,0-.17.32,0,.79.83,1.42.83,1.73-.17,1.42-.49,0-3.97-.16-4.3-.16-.99,0-1.82-.95-2.81-3.15-1.98-4.1-3.14-10.41-3.81-19.71-.16-2.84-.33-3.78-.83-3.78-.33,0-.5.16-.5.32s.17.32.33.16c.33-.16.5-.16.5-.16,0,.47-1.65,4.41-2.65,6.46-.5,1.26-1.16,2.84-1.32,3.47-.17.63-.5,1.1-.66.94-.17-.16-.17.16,0,.47.17.79-2.65,6.47-4.13,8.51-2.98,3.78-4.3,4.89-7.44,5.84-1.82.47-4.79.94-5.62.79-.5,0-.66-.31-.66-.63s-.49-.47-.99-.47c-1.16,0-2.15-1.42-3.64-5.05-2.32-6.3-2.32-11.35-.17-21.91.33-1.42.83-3.47,1.32-4.41.5-.95.83-1.89.83-2.21s.83-2.36,1.98-4.41c1.16-2.05,2.48-4.41,2.98-5.2.33-.94,2.15-3,3.97-4.73,4.3-4.1,6.78-5.05,11.08-3.78q5.13,1.57,5.13,1.1c0-.32.33-.47.66-.47.5,0,.83-.16.83-.47,0-.16.17-.16.5.16.17.32.33.63.33.95-.17.16,0,.31.17.31s.49-.31.66-.79q.17-.63.5,0c.33.32.66.47,1.32.32.83-.16.99,0,.99.94,0,1.1.17,1.1.33.32.5-1.89,4.13-.63,4.47,2.84.33,1.89.83,5.83,1.16,8.83.5,2.84.99,7.88,1.16,10.88.16,3,.33,6.31.49,7.1.17.94.33,2.52.33,3.63.33,2.21,1.49,9.14,1.98,11.19.33.79.33,1.26,0,1.1ZM444.4,60.75c-.17-.47-.33-.95-.33-1.26,0-.47-.66-.63-3.47-.47-.66.16-3.31,2.37-4.63,4.1-.49.47-.66.63-.49.32.16-.32.16-.47-.17-.16-.17.16-.33.32-.17.47.17.32,0,.47-.5.63-.17.16-.5.47-.5.63,0,.32-.66,1.73-1.49,3.15-1.82,3.31-3.14,6.46-3.14,7.72-.17.47-.33,1.42-.66,2.05-.17.47-.5,1.73-.5,2.52-.17.95-.33,2.36-.5,2.99-.33,1.89-.17,8.99.33,10.56s1.32,3,1.82,3c.17,0,.99-1.26,1.98-2.84.99-1.42,2.32-4.26,2.98-6.15.66-1.89,1.65-4.26,2.15-5.52,1.98-4.1,7.61-21.13,7.27-21.76ZM458.29,105.06c0-.16-3.31-.16-3.47,0s0,.16.33.16,3.31,0,3.14-.16Z"/>
      <path class="cls-1" d="M480.78,104.27c0,1.1-.33,2.21-.66,2.68-.33.47-.5,1.1-.5,1.42,0,.79-1.98,1.1-2.48.32-.5-.63-.99-.32-.99.63,0,.47-.17.63-.33.47-.33-.47-1.65-.16-2.15.47-.33.79-.83.32-.99-.79,0-.63,0-.79-.17-.47,0,.47-.5.95-.99,1.1q-.99.47-1.16-.79c-.17-.79-.33-1.42-.17-1.42,0,0-.33-.63-.66-1.1-.17-.63-.33-1.42-.33-1.58.17-.32.17-.63,0-.63-.49,0-.33-1.73.17-8.99.17-2.36.5-6.94.66-10.09.33-11.19.5-15.77.66-16.24.17-.32.33-2.68.33-5.2.16-2.52.33-4.73.66-5.05.17-.16.33-.47.17-.63s-.17-.32.17-.32c.17,0,.33-.32.33-.63,0-.47.33-.79.5-.79.33,0,.83-.32,1.32-.63.66-.95,1.16-.95,1.16-.32s.66.63,1.49.16c.33-.16.5,0,.5.47,0,.32.33.79.49,1.1,1.32.94,1.98,4.26,2.32,10.56,0,2.05.17,4.89.33,5.99.66,7.25.83,26.33.33,30.27ZM469.86,41.05c0,.16.17.16.33,0,.17,0,.33-.32.33-.47s-.17-.32-.33-.16-.33.32-.33.63ZM474.49,108.05c0-.32-.17,0-.17.47s.17.63.17.47c.17-.32.17-.63,0-.95ZM475.65,56.81c-.17-.16-.33,0-.33.32,0,.16.16.32.33.16s.17-.32,0-.47Z"/>
      <path class="cls-1" d="M531.21,52.08c-.17.32-.17.95-.17,1.26s-.33.63-.66.63c-.66,0-.66.63-.17.94.83.47-.99,1.58-2.32,1.58-1.82-.16-2.64,0-2.32.32,0,.16.5.32.99.16q.66-.16.33.32c-.33.16-1.65.16-3.47.16-2.15-.16-2.64-.16-2.15.16q.33.32-.33.16c-.99-.16-1.16,0-5.95,5.52-1.49,1.74-3.14,3.47-3.64,3.94-.33.47-.83,1.1-.66,1.1,0,.16-.16.32-.33.32s-.33.16-.33.47c0,.79-2.48,4.89-2.81,4.57-.17,0-.17.16,0,.47.17.47.17.63-.17.47-.33-.16-.5-.16-.5.16.17.63-.33,2.52-.66,3-.17.16-.66,1.89-1.16,3.79-.66,2.99-.83,3.94-.66,15.13,0,11.04-.17,14.35-.83,14.03-.17-.16-.5,0-.83.31-.17.32-.49.32-.66.32-.17-.16-.33,0-.33.16,0,.32-.33.32-.66.32-.33-.16-.5,0-.5.32q-.17.47-.33.16c0-.16-.33-.47-.5-.47-.33,0-.33.32-.17.63.17.63-1.49.63-2.65,0-.33-.16-.83-.47-.99-.63s-.33-.16-.33.16c-.33.95-.99.79-1.49-.32-.33-.94-1.82-1.26-1.82-.32,0,.16-.33-.16-.66-.79-.5-1.1-.66-2.84-1.66-17.82-.17-3.47-.49-7.41-.66-8.67s-.17-3.15-.17-4.1c.17-2.36.17-2.68-.17-4.26-.17-1.1,0-1.42.33-1.26.17.16.33,0,.33-.32,0-.47-.17-.79-.5-.94-.66-.16-.83-5.99-.33-9.15.17-1.1,0-1.42-.17-1.26-.33,0-.5,0-.5-.31s.17-.63.5-.79c.33,0,.33-.16-.17-.47-.17-.16-.33-.63-.17-1.1,0-.47,0-.79-.17-.79-.33,0-1.16-4.1-.83-4.26.33,0,.49-.16.49-.47,0-.16-.17-.16-.49,0-.33.16-.33-.31-.17-1.73.33-2.21.83-3.15,1.49-3.15.33,0,.66-.16.66-.47.17-.47,1.82.31,1.82.79,0,.16.33.47.83.47,1.82,0,3.31,1.58,3.97,4.89.33.79.33,1.74.17,2.05,0,.31,0,.47.33.47s.33.32.17.79c0,.32.17,1.1.33,1.58.33.63.66,2.05.83,3.31.17,2.52.66,3.47.99,1.89.17-.47.5-1.26.99-1.74.5-.47.83-.95.83-1.26s.66-1.1,1.32-2.05c3.14-3.31,4.47-4.73,5.62-6.46,3.97-5.99,12.4-9.62,15.88-6.78.49.47,1.49.79,2.15.79.83,0,1.65.32,2.98,1.42.99.79,1.82,1.57,1.98,1.73,0,.16.33.32.66.32s.5.32.33.63ZM491.85,51.29c-.17-.16-.17,0-.17.16,0,.32,0,.47.17.32s.17-.32,0-.47ZM495.33,58.07c-.17-.16-.33,0-.33.32,0,.16.17.31.33.16v-.47ZM495.82,60.6c-.33-.16-.5,0-.5.32,0,.63.33.79.66.32,0-.16,0-.47-.16-.63ZM502.93,103.32q0,.32.17.32c.17-.16.17-.47,0-.47q-.17-.16-.17.16ZM503.6,109.63c0-.16-.17-.32-.33-.47-.17,0-.33,0-.33.16,0,.32.17.47.33.47s.33-.16.33-.16Z"/>
    </g>
  </g>
</svg>